<?xml version="1.0" encoding="UTF-8"?>
<svg xmlns="http://www.w3.org/2000/svg" xmlns:xlink="http://www.w3.org/1999/xlink" width="848px" height="656px" viewBox="0 0 848 656" version="1.1">
<g id="surface1">
<path style=" stroke:none;fill-rule:nonzero;fill:rgb(94.901961%,94.901961%,94.901961%);fill-opacity:1;" d="M 37.59375 637.289062 C 64.015625 656.324219 98.257812 657.277344 131.355469 654.941406 C 135.976562 654.613281 140.566406 654.230469 145.113281 653.816406 C 145.140625 653.8125 145.175781 653.8125 145.203125 653.804688 C 145.421875 653.785156 145.640625 653.765625 145.851562 653.753906 C 146.789062 653.664062 147.730469 653.578125 148.660156 653.488281 L 148.4375 653.90625 L 147.75 655.207031 C 147.996094 654.773438 148.246094 654.347656 148.492188 653.910156 C 148.566406 653.78125 148.648438 653.652344 148.71875 653.519531 C 157.292969 638.597656 165.796875 623.128906 167.96875 606.09375 C 170.210938 588.40625 163.90625 568.382812 148.34375 559.691406 C 146.300781 558.554688 144.140625 557.648438 141.898438 556.992188 C 140.96875 556.710938 140.023438 556.480469 139.070312 556.277344 C 127.183594 553.636719 114.800781 557.621094 106.683594 566.695312 C 98.566406 575.769531 95.980469 588.519531 99.921875 600.039062 C 86.726562 586.507812 89.1875 564.558594 93.738281 546.210938 C 98.300781 527.867188 103.820312 507.453125 94.542969 490.976562 C 89.386719 481.804688 80.320312 476.113281 70.144531 473.820312 C 69.832031 473.753906 69.519531 473.6875 69.207031 473.628906 C 57.082031 471.171875 44.476562 473.382812 33.910156 479.8125 C 14.449219 492.074219 4.457031 515.324219 1.214844 538.097656 C -4.011719 574.746094 7.554688 615.644531 37.59375 637.289062 Z M 37.59375 637.289062 "/>
<path style=" stroke:none;fill-rule:nonzero;fill:rgb(100%,100%,100%);fill-opacity:1;" d="M 46.125 578.539062 C 46.890625 586.625 48.832031 594.554688 51.890625 602.074219 C 54.703125 608.734375 58.5 614.933594 63.148438 620.46875 C 72.644531 631.890625 85.203125 640.480469 98.839844 646.203125 C 109.265625 650.472656 120.191406 653.410156 131.355469 654.941406 C 135.976562 654.613281 140.566406 654.230469 145.113281 653.816406 C 145.140625 653.8125 145.175781 653.8125 145.203125 653.804688 C 145.421875 653.785156 145.640625 653.765625 145.851562 653.753906 C 146.789062 653.664062 147.730469 653.578125 148.65625 653.488281 L 148.4375 653.90625 L 147.75 655.207031 C 147.996094 654.773438 148.246094 654.347656 148.492188 653.910156 C 148.566406 653.78125 148.648438 653.652344 148.71875 653.519531 C 131.738281 636.601562 124.011719 612.496094 128 588.855469 C 130.058594 577.289062 134.820312 566.371094 141.898438 556.992188 C 140.96875 556.710938 140.023438 556.480469 139.070312 556.277344 C 136.378906 559.953125 134.019531 563.863281 132.019531 567.957031 C 124.835938 582.550781 122.546875 599.074219 125.484375 615.074219 C 128.214844 629.554688 135.023438 642.953125 145.105469 653.699219 C 144.222656 653.636719 143.328125 653.566406 142.457031 653.484375 C 125.9375 652.085938 109.449219 648.535156 94.460938 641.257812 C 81.652344 635.191406 70.53125 626.066406 62.082031 614.6875 C 53.003906 602.171875 49.003906 587.117188 48.320312 571.816406 C 47.589844 555.433594 49.714844 538.761719 53.453125 522.832031 C 57.273438 506.5 63.074219 490.695312 70.730469 475.773438 C 71.085938 475.070312 70.828125 474.210938 70.144531 473.820312 C 69.867188 473.636719 69.53125 473.566406 69.207031 473.628906 C 68.882812 473.714844 68.617188 473.941406 68.484375 474.246094 C 67.539062 476.089844 66.613281 477.933594 65.722656 479.800781 C 58.292969 495.339844 52.828125 511.738281 49.441406 528.625 C 46.160156 544.914062 44.40625 561.953125 46.125 578.539062 Z M 46.125 578.539062 "/>
<path style=" stroke:none;fill-rule:nonzero;fill:rgb(24.705882%,23.921569%,33.72549%);fill-opacity:1;" d="M 830.691406 564 L 393.691406 564 C 384.308594 563.988281 376.703125 556.382812 376.691406 547 L 376.691406 17 C 376.703125 7.617188 384.308594 0.0117188 393.691406 0 L 830.691406 0 C 840.078125 0.0117188 847.683594 7.617188 847.691406 17 L 847.691406 547 C 847.683594 556.382812 840.078125 563.988281 830.691406 564 Z M 393.691406 2 C 385.414062 2.007812 378.703125 8.71875 378.691406 17 L 378.691406 547 C 378.703125 555.28125 385.414062 561.992188 393.691406 562 L 830.691406 562 C 838.972656 561.992188 845.683594 555.28125 845.691406 547 L 845.691406 17 C 845.683594 8.71875 838.972656 2.007812 830.691406 2 Z M 393.691406 2 "/>
<path style=" stroke:none;fill-rule:nonzero;fill:rgb(24.705882%,23.921569%,33.72549%);fill-opacity:1;" d="M 377.691406 41.589844 L 846.691406 41.589844 L 846.691406 43.589844 L 377.691406 43.589844 Z M 377.691406 41.589844 "/>
<path style=" stroke:none;fill-rule:nonzero;fill:rgb(24.705882%,23.921569%,33.72549%);fill-opacity:1;" d="M 408.691406 22 C 408.691406 26.417969 405.109375 30 400.691406 30 C 396.273438 30 392.691406 26.417969 392.691406 22 C 392.691406 17.582031 396.273438 14 400.691406 14 C 405.109375 14 408.691406 17.582031 408.691406 22 Z M 408.691406 22 "/>
<path style=" stroke:none;fill-rule:nonzero;fill:rgb(24.705882%,23.921569%,33.72549%);fill-opacity:1;" d="M 433.691406 22 C 433.691406 26.417969 430.109375 30 425.691406 30 C 421.273438 30 417.691406 26.417969 417.691406 22 C 417.691406 17.582031 421.273438 14 425.691406 14 C 430.109375 14 433.691406 17.582031 433.691406 22 Z M 433.691406 22 "/>
<path style=" stroke:none;fill-rule:nonzero;fill:rgb(24.705882%,23.921569%,33.72549%);fill-opacity:1;" d="M 458.691406 22 C 458.691406 26.417969 455.109375 30 450.691406 30 C 446.273438 30 442.691406 26.417969 442.691406 22 C 442.691406 17.582031 446.273438 14 450.691406 14 C 455.109375 14 458.691406 17.582031 458.691406 22 Z M 458.691406 22 "/>
<path style=" stroke:none;fill-rule:nonzero;fill:rgb(24.705882%,23.921569%,33.72549%);fill-opacity:1;" d="M 762.953125 121 L 450.953125 121 C 443.773438 121 437.953125 115.179688 437.953125 108 C 437.953125 100.820312 443.773438 95 450.953125 95 L 762.953125 95 C 770.132812 95 775.953125 100.820312 775.953125 108 C 775.953125 115.179688 770.132812 121 762.953125 121 Z M 450.953125 97 C 444.878906 97 439.953125 101.925781 439.953125 108 C 439.953125 114.074219 444.878906 119 450.953125 119 L 762.953125 119 C 769.027344 119 773.953125 114.074219 773.953125 108 C 773.953125 101.925781 769.027344 97 762.953125 97 Z M 450.953125 97 "/>
<path style=" stroke:none;fill-rule:nonzero;fill:rgb(24.705882%,23.921569%,33.72549%);fill-opacity:1;" d="M 567.691406 304 L 444.691406 304 C 435.308594 303.988281 427.703125 296.382812 427.691406 287 L 427.691406 186 C 427.703125 176.617188 435.308594 169.011719 444.691406 169 L 567.691406 169 C 577.078125 169.011719 584.683594 176.617188 584.691406 186 L 584.691406 287 C 584.683594 296.382812 577.078125 303.988281 567.691406 304 Z M 444.691406 171 C 436.414062 171.007812 429.703125 177.71875 429.691406 186 L 429.691406 287 C 429.703125 295.28125 436.414062 301.992188 444.691406 302 L 567.691406 302 C 575.972656 301.992188 582.683594 295.28125 582.691406 287 L 582.691406 186 C 582.683594 177.71875 575.972656 171.007812 567.691406 171 Z M 444.691406 171 "/>
<path style=" stroke:none;fill-rule:nonzero;fill:rgb(94.901961%,94.901961%,94.901961%);fill-opacity:1;" d="M 656.691406 174 L 779.691406 174 C 788.53125 174 795.691406 181.164062 795.691406 190 L 795.691406 291 C 795.691406 299.835938 788.53125 307 779.691406 307 L 656.691406 307 C 647.855469 307 640.691406 299.835938 640.691406 291 L 640.691406 190 C 640.691406 181.164062 647.855469 174 656.691406 174 Z M 656.691406 174 "/>
<path style=" stroke:none;fill-rule:nonzero;fill:rgb(24.705882%,23.921569%,33.72549%);fill-opacity:1;" d="M 567.691406 492 L 444.691406 492 C 435.308594 491.988281 427.703125 484.382812 427.691406 475 L 427.691406 374 C 427.703125 364.617188 435.308594 357.011719 444.691406 357 L 567.691406 357 C 577.078125 357.011719 584.683594 364.617188 584.691406 374 L 584.691406 475 C 584.683594 484.382812 577.078125 491.988281 567.691406 492 Z M 444.691406 359 C 436.414062 359.007812 429.703125 365.71875 429.691406 374 L 429.691406 475 C 429.703125 483.28125 436.414062 489.992188 444.691406 490 L 567.691406 490 C 575.972656 489.992188 582.683594 483.28125 582.691406 475 L 582.691406 374 C 582.683594 365.71875 575.972656 359.007812 567.691406 359 Z M 444.691406 359 "/>
<path style=" stroke:none;fill-rule:nonzero;fill:rgb(94.901961%,94.901961%,94.901961%);fill-opacity:1;" d="M 656.691406 362 L 779.691406 362 C 788.53125 362 795.691406 369.164062 795.691406 378 L 795.691406 479 C 795.691406 487.835938 788.53125 495 779.691406 495 L 656.691406 495 C 647.855469 495 640.691406 487.835938 640.691406 479 L 640.691406 378 C 640.691406 369.164062 647.855469 362 656.691406 362 Z M 656.691406 362 "/>
<path style=" stroke:none;fill-rule:nonzero;fill:rgb(100%,53.333333%,0%);fill-opacity:1;" d="M 475.585938 279.574219 C 475.5625 279.574219 475.539062 279.570312 475.519531 279.570312 L 461.527344 279.054688 C 460.625 279.027344 459.882812 278.335938 459.785156 277.441406 C 458.824219 268.847656 454.859375 225.070312 471.460938 206.875 C 476.21875 201.550781 483.117188 198.652344 490.246094 198.980469 C 490.539062 199 490.816406 198.855469 490.96875 198.605469 L 494.355469 193.28125 C 494.734375 192.695312 495.414062 192.371094 496.109375 192.453125 C 498.824219 192.78125 512.664062 194.328125 518.484375 192.644531 C 519.1875 192.4375 519.945312 192.667969 520.410156 193.234375 L 524.855469 198.671875 C 525.011719 198.871094 525.253906 198.984375 525.503906 198.972656 C 527.765625 198.925781 535.699219 199.363281 542.640625 207.128906 C 550.15625 215.535156 557.914062 234.503906 552.183594 277.125 C 552.058594 278.03125 551.289062 278.707031 550.375 278.707031 L 539.355469 278.707031 C 538.453125 278.703125 537.6875 278.042969 537.550781 277.148438 L 533.953125 252.3125 C 533.890625 251.890625 533.515625 251.582031 533.089844 251.609375 C 532.664062 251.636719 532.328125 251.984375 532.316406 252.414062 L 532.070312 264.074219 C 532.054688 264.78125 531.632812 265.414062 530.988281 265.699219 C 527.058594 267.425781 506.304688 275.527344 483.363281 265.382812 C 482.730469 265.097656 482.3125 264.480469 482.28125 263.789062 L 481.832031 253.195312 C 481.8125 252.765625 481.46875 252.421875 481.039062 252.40625 C 480.609375 252.394531 480.242188 252.710938 480.191406 253.136719 L 477.394531 277.953125 C 477.289062 278.875 476.511719 279.570312 475.585938 279.574219 Z M 475.585938 279.574219 "/>
<path style=" stroke:none;fill-rule:nonzero;fill:rgb(100%,53.333333%,0%);fill-opacity:1;" d="M 533.457031 462.539062 L 533.449219 462.539062 L 478.625 462.191406 C 477.800781 462.1875 477.109375 461.566406 477.011719 460.75 L 471.5 413.875 C 471.429688 413.25 470.910156 412.769531 470.28125 412.753906 C 465.929688 412.609375 455.574219 411.617188 453.429688 405.488281 C 451.519531 400.03125 456.746094 391.980469 468.964844 381.558594 C 469.386719 381.195312 469.964844 381.074219 470.496094 381.234375 C 471.027344 381.390625 471.445312 381.8125 471.601562 382.34375 L 477.941406 404.230469 C 478.101562 404.769531 478.59375 405.140625 479.15625 405.148438 L 531.136719 405.496094 C 531.695312 405.5 532.191406 405.140625 532.355469 404.605469 L 539.414062 382.148438 C 539.574219 381.636719 539.972656 381.238281 540.480469 381.078125 C 540.988281 380.917969 541.542969 381.011719 541.964844 381.335938 C 546.78125 385.015625 562.296875 397.644531 559.742188 405.722656 C 558.40625 409.953125 552.375 412.308594 541.8125 412.730469 C 541.1875 412.75 540.671875 413.226562 540.601562 413.851562 L 535.082031 461.09375 C 534.988281 461.917969 534.289062 462.539062 533.457031 462.539062 Z M 533.457031 462.539062 "/>
<path style=" stroke:none;fill-rule:nonzero;fill:rgb(100%,100%,100%);fill-opacity:1;" d="M 773.691406 265.152344 C 756.464844 268.46875 740.21875 275.664062 726.1875 286.191406 C 725.476562 284.304688 724.140625 282.714844 722.398438 281.695312 C 721.210938 280.957031 719.914062 280.410156 718.554688 280.078125 C 717.320312 279.761719 716.132812 280.515625 715.042969 281.597656 C 713.789062 282.984375 712.734375 284.542969 711.917969 286.222656 C 693.089844 273.300781 664.53125 265.054688 664.53125 265.054688 L 664.53125 262.472656 C 664.554688 261.863281 664.617188 261.257812 664.71875 260.65625 C 664.816406 259.960938 664.9375 259.347656 665.089844 258.59375 C 667.511719 246.269531 677.089844 218.109375 677.089844 218.109375 L 687.921875 218.109375 L 708.921875 222.46875 L 732.542969 221.023438 L 756.335938 216.074219 L 759.421875 215.425781 C 764.566406 219.464844 770.40625 247.734375 772.699219 259.765625 C 772.992188 261.292969 773.214844 262.554688 773.386719 263.480469 C 773.589844 264.53125 773.691406 265.152344 773.691406 265.152344 Z M 773.691406 265.152344 "/>
<path style=" stroke:none;fill-rule:nonzero;fill:rgb(100%,100%,100%);fill-opacity:1;" d="M 709.070312 389.21875 C 709.070312 389.21875 704.039062 390.476562 696.238281 411.609375 C 688.433594 432.738281 685.671875 460.042969 685.671875 460.042969 C 685.671875 460.042969 681.285156 467.46875 700.007812 467.96875 C 700.007812 467.96875 698.503906 472.875 709.070312 472.121094 C 719.632812 471.367188 718.113281 471.375 718.113281 471.375 C 718.113281 471.375 724.90625 467.097656 727.925781 467.851562 C 730.945312 468.605469 732.832031 468.859375 736.101562 471.625 C 739.371094 474.386719 749.816406 473.261719 749.941406 471.125 C 750.027344 470.078125 750.027344 469.023438 749.941406 467.976562 C 749.941406 467.976562 765.917969 468.984375 762.898438 457.410156 C 759.878906 445.835938 757.363281 426.839844 757.363281 426.839844 C 757.363281 426.839844 749.1875 389.730469 739.875 389.226562 C 730.558594 388.722656 709.070312 389.21875 709.070312 389.21875 Z M 709.070312 389.21875 "/>
<path style=" stroke:none;fill-rule:nonzero;fill:rgb(18.431373%,18.039216%,25.490196%);fill-opacity:1;" d="M 222.640625 323.597656 C 222.640625 340.164062 209.207031 353.597656 192.640625 353.597656 C 176.070312 353.597656 162.640625 340.164062 162.640625 323.597656 C 162.640625 307.027344 176.070312 293.597656 192.640625 293.597656 C 209.207031 293.597656 222.640625 307.027344 222.640625 323.597656 Z M 222.640625 323.597656 "/>
<path style=" stroke:none;fill-rule:nonzero;fill:rgb(100%,72.156863%,72.156863%);fill-opacity:1;" d="M 219.722656 329.09375 C 219.722656 342.65625 208.726562 353.652344 195.160156 353.652344 C 181.59375 353.652344 170.597656 342.65625 170.597656 329.09375 C 170.597656 315.527344 181.59375 304.53125 195.160156 304.53125 C 208.726562 304.53125 219.722656 315.527344 219.722656 329.09375 Z M 219.722656 329.09375 "/>
<path style=" stroke:none;fill-rule:nonzero;fill:rgb(100%,72.156863%,72.156863%);fill-opacity:1;" d="M 288.699219 403.796875 C 288.308594 404.191406 287.949219 404.613281 287.625 405.0625 L 238.0625 403.308594 L 232.394531 392.679688 L 215.234375 399.136719 L 223.441406 418.933594 C 224.800781 422.21875 228.167969 424.210938 231.703125 423.820312 L 287.789062 417.664062 C 290.457031 421.117188 294.980469 422.558594 299.15625 421.285156 C 303.332031 420.011719 306.28125 416.289062 306.570312 411.933594 C 306.855469 407.578125 304.417969 403.5 300.445312 401.691406 C 296.472656 399.882812 291.796875 400.722656 288.699219 403.796875 Z M 288.699219 403.796875 "/>
<path style=" stroke:none;fill-rule:nonzero;fill:rgb(80%,80%,80%);fill-opacity:1;" d="M 208.632812 408.695312 C 207.351562 408.121094 206.386719 407.019531 205.988281 405.679688 L 199.085938 382.507812 C 195.964844 375.828125 198.835938 367.882812 205.507812 364.742188 C 212.179688 361.601562 220.136719 364.453125 223.292969 371.117188 L 236.664062 391.351562 C 237.4375 392.519531 237.664062 393.96875 237.28125 395.316406 C 236.902344 396.664062 235.953125 397.78125 234.683594 398.371094 L 212.644531 408.664062 C 211.375 409.257812 209.910156 409.269531 208.632812 408.695312 Z M 208.632812 408.695312 "/>
<path style=" stroke:none;fill-rule:nonzero;fill:rgb(100%,72.156863%,72.156863%);fill-opacity:1;" d="M 257.445312 643.925781 L 268.214844 638.066406 L 250.730469 593.742188 L 234.835938 602.394531 Z M 257.445312 643.925781 "/>
<path style=" stroke:none;fill-rule:nonzero;fill:rgb(18.431373%,18.039216%,25.490196%);fill-opacity:1;" d="M 252.785156 641.90625 L 273.992188 630.363281 C 281.457031 626.300781 290.800781 629.054688 294.863281 636.519531 L 295.101562 636.960938 L 260.382812 655.859375 Z M 252.785156 641.90625 "/>
<path style=" stroke:none;fill-rule:nonzero;fill:rgb(100%,72.156863%,72.156863%);fill-opacity:1;" d="M 138.960938 643.976562 L 151.21875 643.976562 L 157.050781 596.6875 L 138.957031 596.6875 Z M 138.960938 643.976562 "/>
<path style=" stroke:none;fill-rule:nonzero;fill:rgb(18.431373%,18.039216%,25.490196%);fill-opacity:1;" d="M 135.832031 639.972656 L 159.976562 639.972656 C 168.472656 639.972656 175.363281 646.859375 175.363281 655.359375 L 175.363281 655.859375 L 135.832031 655.859375 Z M 135.832031 639.972656 "/>
<path style=" stroke:none;fill-rule:nonzero;fill:rgb(18.431373%,18.039216%,25.490196%);fill-opacity:1;" d="M 215.140625 434.097656 L 219.140625 482.097656 L 263.757812 615.953125 C 264.113281 617.015625 264.003906 618.179688 263.460938 619.160156 C 262.914062 620.140625 261.980469 620.847656 260.890625 621.109375 L 247.214844 624.363281 C 245.414062 624.792969 243.550781 623.929688 242.71875 622.273438 L 185.671875 509.121094 C 185.292969 508.363281 184.476562 507.929688 183.636719 508.035156 C 182.796875 508.140625 182.117188 508.765625 181.933594 509.59375 L 156.832031 623.953125 C 156.425781 625.789062 154.800781 627.097656 152.921875 627.097656 L 140.203125 627.097656 C 139.132812 627.097656 138.105469 626.667969 137.355469 625.90625 C 136.601562 625.144531 136.1875 624.113281 136.203125 623.042969 C 137.371094 543.746094 133.523438 453.386719 164.140625 439.097656 L 169.140625 426.097656 Z M 215.140625 434.097656 "/>
<path style=" stroke:none;fill-rule:nonzero;fill:rgb(80%,80%,80%);fill-opacity:1;" d="M 167.699219 429.5 L 162.542969 398.324219 C 160.8125 387.933594 164.492188 377.375 172.3125 370.316406 C 179.957031 363.328125 190.636719 360.714844 200.644531 363.390625 C 200.9375 363.46875 201.230469 363.550781 201.523438 363.632812 C 213.933594 367.1875 222.808594 378.105469 223.75 390.980469 C 224.734375 404.519531 223.851562 424.164062 214.070312 440.847656 L 213.882812 441.171875 Z M 167.699219 429.5 "/>
<path style=" stroke:none;fill-rule:nonzero;fill:rgb(18.431373%,18.039216%,25.490196%);fill-opacity:1;" d="M 219.59375 316.039062 C 213.980469 319.90625 207.320312 321.964844 200.503906 321.9375 C 202.933594 323.625 205.703125 324.761719 208.617188 325.277344 C 199.554688 327.21875 190.1875 327.273438 181.101562 325.429688 C 179.082031 325.105469 177.132812 324.4375 175.34375 323.453125 C 173.535156 322.445312 172.242188 320.714844 171.789062 318.699219 C 171.183594 315.25 173.871094 312.117188 176.664062 310.003906 C 185.320312 303.558594 196.417969 301.339844 206.886719 303.964844 C 210.265625 304.835938 213.644531 306.3125 215.839844 309.023438 C 218.03125 311.734375 218.683594 315.914062 216.59375 318.707031 Z M 219.59375 316.039062 "/>
<path style=" stroke:none;fill-rule:nonzero;fill:rgb(18.431373%,18.039216%,25.490196%);fill-opacity:1;" d="M 192.246094 293.449219 C 195.09375 281.953125 184.886719 269.179688 173.046875 269.417969 C 161.035156 269.660156 152.195312 280.519531 146.117188 290.882812 C 140.039062 301.25 134 313 122.84375 317.460938 C 115.34375 320.460938 106.839844 319.496094 100.207031 314.886719 C 93.574219 310.277344 89.703125 302.644531 89.898438 294.570312 C 88.398438 307.160156 90.476562 320.789062 98.597656 330.527344 C 106.71875 340.269531 121.828125 344.660156 132.691406 338.113281 C 138.894531 334.375 142.859375 327.875 146.128906 321.410156 C 149.398438 314.949219 152.308594 308.132812 157.261719 302.847656 C 162.214844 297.5625 169.875 294.054688 176.765625 296.28125 C 179.503906 297.164062 181.957031 298.882812 184.785156 299.40625 C 187.613281 299.929688 191.171875 298.585938 191.558594 295.738281 Z M 192.246094 293.449219 "/>
<path style=" stroke:none;fill-rule:nonzero;fill:rgb(100%,72.156863%,72.156863%);fill-opacity:1;" d="M 133.046875 501.890625 C 130.984375 499.472656 130.097656 496.265625 130.628906 493.128906 C 131.15625 489.992188 133.046875 487.253906 135.792969 485.648438 L 157.097656 390.152344 L 178.710938 399.019531 L 150.972656 490.101562 C 153.417969 494.996094 151.816406 500.949219 147.246094 503.957031 C 142.671875 506.964844 136.574219 506.078125 133.046875 501.890625 Z M 133.046875 501.890625 "/>
<path style=" stroke:none;fill-rule:nonzero;fill:rgb(80%,80%,80%);fill-opacity:1;" d="M 148.65625 403.851562 C 147.964844 402.628906 147.84375 401.171875 148.320312 399.855469 L 156.511719 377.109375 C 157.964844 369.878906 164.992188 365.1875 172.226562 366.621094 C 179.457031 368.050781 184.167969 375.066406 182.757812 382.304688 L 181.511719 406.527344 C 181.441406 407.925781 180.761719 409.222656 179.65625 410.082031 C 178.550781 410.941406 177.125 411.277344 175.753906 411.003906 L 151.902344 406.207031 C 150.527344 405.929688 149.34375 405.070312 148.65625 403.851562 Z M 148.65625 403.851562 "/>
<path style=" stroke:none;fill-rule:nonzero;fill:rgb(24.705882%,23.921569%,33.72549%);fill-opacity:1;" d="M 323.214844 393.140625 L 322.859375 393.089844 L 324.195312 383.367188 C 324.625 380.261719 322.449219 377.394531 319.34375 376.96875 L 298.742188 374.136719 C 295.636719 373.710938 292.769531 375.882812 292.34375 378.988281 L 285.007812 432.332031 C 284.582031 435.4375 286.753906 438.304688 289.863281 438.730469 L 310.464844 441.5625 C 313.570312 441.992188 316.4375 439.816406 316.863281 436.710938 L 321.910156 400.011719 L 322.261719 400.0625 Z M 323.214844 393.140625 "/>
<path style=" stroke:none;fill-rule:nonzero;fill:rgb(100%,100%,100%);fill-opacity:1;" d="M 318.695312 379.820312 L 316.128906 379.46875 C 316.289062 380.089844 316.128906 380.746094 315.703125 381.222656 C 315.277344 381.703125 314.640625 381.9375 314.007812 381.847656 L 302.75 380.300781 C 302.117188 380.214844 301.566406 379.816406 301.285156 379.242188 C 301.003906 378.667969 301.027344 377.988281 301.347656 377.4375 L 298.953125 377.105469 C 296.738281 376.800781 294.695312 378.351562 294.390625 380.5625 L 287.410156 431.367188 C 287.105469 433.582031 288.652344 435.625 290.867188 435.925781 L 310.609375 438.640625 C 312.824219 438.945312 314.863281 437.398438 315.167969 435.183594 L 322.152344 384.378906 C 322.457031 382.164062 320.910156 380.125 318.695312 379.820312 Z M 318.695312 379.820312 "/>
<path style=" stroke:none;fill-rule:nonzero;fill:rgb(100%,53.333333%,0%);fill-opacity:1;" d="M 315.691406 411 C 315.691406 417.074219 310.769531 422 304.691406 422 C 298.617188 422 293.691406 417.074219 293.691406 411 C 293.691406 404.925781 298.617188 400 304.691406 400 C 310.769531 400 315.691406 404.925781 315.691406 411 Z M 315.691406 411 "/>
<path style=" stroke:none;fill-rule:nonzero;fill:rgb(100%,100%,100%);fill-opacity:1;" d="M 303.601562 415.195312 C 303.355469 415.195312 303.113281 415.117188 302.917969 414.96875 L 302.902344 414.960938 L 300.320312 412.980469 C 299.992188 412.730469 299.824219 412.324219 299.875 411.917969 C 299.929688 411.511719 300.195312 411.160156 300.574219 411.003906 C 300.957031 410.847656 301.390625 410.90625 301.714844 411.15625 L 303.390625 412.441406 L 307.347656 407.28125 C 307.734375 406.777344 308.453125 406.679688 308.957031 407.066406 L 308.933594 407.101562 L 308.957031 407.066406 C 309.460938 407.453125 309.554688 408.175781 309.171875 408.679688 L 304.515625 414.746094 C 304.296875 415.03125 303.960938 415.195312 303.601562 415.195312 Z M 303.601562 415.195312 "/>
<path style=" stroke:none;fill-rule:nonzero;fill:rgb(24.705882%,23.921569%,33.72549%);fill-opacity:1;" d="M 406.074219 656 L 25.074219 656 C 24.523438 656 24.074219 655.550781 24.074219 655 C 24.074219 654.449219 24.523438 654 25.074219 654 L 406.074219 654 C 406.628906 654 407.074219 654.449219 407.074219 655 C 407.074219 655.550781 406.628906 656 406.074219 656 Z M 406.074219 656 "/>
</g>
</svg>
