<?xml version="1.0" encoding="UTF-8"?>
<svg xmlns="http://www.w3.org/2000/svg" xmlns:xlink="http://www.w3.org/1999/xlink" width="848px" height="656px" viewBox="0 0 848 656" version="1.1">
<g id="surface1">
<path style=" stroke:none;fill-rule:nonzero;fill:rgb(94.117647%,94.117647%,94.117647%);fill-opacity:1;" d="M 203.480469 355.910156 C 196.71875 320.3125 207.367188 279.816406 236.96875 258.269531 C 235.289062 297.617188 247.820312 336.277344 272.34375 367.414062 C 281.84375 379.386719 293.679688 391.734375 293.3125 406.914062 C 293.082031 416.363281 287.886719 425.164062 281.039062 431.792969 C 274.191406 438.425781 265.753906 443.207031 257.421875 447.910156 L 256.125 449.894531 C 231.691406 422.800781 210.246094 391.507812 203.480469 355.910156 Z M 203.480469 355.910156 "/>
<path style=" stroke:none;fill-rule:nonzero;fill:rgb(100%,100%,100%);fill-opacity:1;" d="M 237.507812 258.8125 C 225.070312 286.179688 221.71875 316.703125 227.933594 346.050781 C 229.15625 352.390625 231.386719 358.5 234.546875 364.160156 C 237.804688 369.570312 242.476562 374.027344 248.078125 377.066406 C 253.242188 380 258.875 382.414062 263.222656 386.53125 C 267.664062 390.863281 270.011719 396.847656 269.679688 402.988281 C 269.472656 410.5625 266.507812 417.609375 263.367188 424.402344 C 259.878906 431.945312 256.132812 439.726562 256.359375 448.207031 C 256.386719 449.234375 254.765625 449.21875 254.738281 448.191406 C 254.34375 433.4375 265.191406 421.585938 267.609375 407.429688 C 268.738281 400.824219 267.847656 393.84375 263.125 388.722656 C 258.992188 384.242188 253.191406 381.75 247.933594 378.820312 C 242.425781 375.9375 237.71875 371.773438 234.222656 366.6875 C 230.78125 361.207031 228.316406 355.1875 226.925781 348.894531 C 223.570312 334.769531 222.496094 320.21875 223.738281 305.765625 C 225.0625 289.265625 229.246094 273.109375 236.113281 257.992188 C 236.539062 257.058594 237.929688 257.886719 237.507812 258.8125 Z M 237.507812 258.8125 "/>
<path style=" stroke:none;fill-rule:nonzero;fill:rgb(100%,100%,100%);fill-opacity:1;" d="M 225.367188 336.714844 C 214.730469 337.453125 205.121094 330.503906 202.664062 320.304688 C 202.425781 319.304688 203.996094 318.894531 204.234375 319.898438 C 206.503906 329.402344 215.480469 335.863281 225.382812 335.121094 C 226.425781 335.042969 226.402344 336.640625 225.367188 336.714844 Z M 225.367188 336.714844 "/>
<path style=" stroke:none;fill-rule:nonzero;fill:rgb(100%,100%,100%);fill-opacity:1;" d="M 245.261719 375.917969 C 252.25 368.144531 256.003906 358.066406 255.773438 347.695312 C 255.75 346.667969 257.371094 346.6875 257.394531 347.710938 C 257.617188 358.507812 253.6875 368.984375 246.394531 377.058594 C 245.699219 377.824219 244.566406 376.679688 245.261719 375.917969 Z M 245.261719 375.917969 "/>
<path style=" stroke:none;fill-rule:nonzero;fill:rgb(100%,100%,100%);fill-opacity:1;" d="M 226.964844 290.253906 C 231.070312 290.804688 235.179688 289.285156 237.90625 286.214844 C 238.589844 285.4375 239.722656 286.585938 239.042969 287.355469 C 236.015625 290.734375 231.488281 292.417969 226.945312 291.851562 C 226.503906 291.832031 226.152344 291.480469 226.144531 291.046875 C 226.148438 290.605469 226.515625 290.253906 226.964844 290.253906 Z M 226.964844 290.253906 "/>
<path style=" stroke:none;fill-rule:nonzero;fill:rgb(94.117647%,94.117647%,94.117647%);fill-opacity:1;" d="M 358.015625 287.714844 C 357.601562 288.210938 357.1875 288.707031 356.777344 289.21875 C 351.246094 295.933594 346.28125 303.074219 341.929688 310.578125 C 341.585938 311.15625 341.242188 311.742188 340.914062 312.324219 C 330.625 330.515625 323.859375 350.421875 320.960938 371.039062 C 319.816406 379.246094 319.308594 387.523438 319.4375 395.804688 C 319.621094 407.242188 320.746094 419.628906 317.179688 430.144531 C 316.820312 431.246094 316.390625 432.328125 315.898438 433.375 L 258.6875 451.296875 C 258.535156 451.273438 258.386719 451.265625 258.238281 451.242188 L 255.984375 452.058594 C 255.949219 451.632812 255.917969 451.191406 255.882812 450.761719 C 255.859375 450.515625 255.847656 450.265625 255.828125 450.015625 C 255.816406 449.851562 255.804688 449.683594 255.785156 449.535156 C 255.78125 449.480469 255.777344 449.425781 255.777344 449.382812 C 255.757812 449.234375 255.757812 449.089844 255.742188 448.957031 C 255.570312 446.476562 255.414062 443.996094 255.285156 441.507812 C 255.28125 441.496094 255.28125 441.496094 255.289062 441.476562 C 254.304688 422.515625 254.925781 403.308594 258.488281 384.800781 C 258.597656 384.246094 258.699219 383.675781 258.832031 383.109375 C 260.488281 374.777344 262.832031 366.589844 265.839844 358.632812 C 267.503906 354.28125 269.390625 350.015625 271.492188 345.851562 C 276.941406 335.101562 284.078125 325.261719 292.636719 316.691406 C 309.707031 299.609375 332.140625 288.085938 356.179688 287.722656 C 356.792969 287.714844 357.394531 287.710938 358.015625 287.714844 Z M 358.015625 287.714844 "/>
<path style=" stroke:none;fill-rule:nonzero;fill:rgb(100%,100%,100%);fill-opacity:1;" d="M 358.117188 288.46875 C 331.429688 302.957031 310.066406 325.34375 297.058594 352.453125 C 294.152344 358.238281 292.191406 364.441406 291.25 370.828125 C 290.535156 377.078125 291.539062 383.402344 294.152344 389.144531 C 296.480469 394.542969 299.496094 399.804688 300.445312 405.667969 C 301.339844 411.753906 299.550781 417.921875 295.527344 422.628906 C 290.722656 428.554688 284.039062 432.425781 277.371094 435.992188 C 269.96875 439.949219 262.214844 443.945312 257.203125 450.851562 C 256.59375 451.6875 255.308594 450.710938 255.914062 449.875 C 264.636719 437.863281 280.554688 434.824219 291.152344 424.949219 C 296.097656 420.34375 299.664062 414.242188 299.027344 407.355469 C 298.472656 401.335938 295.363281 395.910156 292.960938 390.460938 C 290.328125 384.898438 289.121094 378.785156 289.445312 372.65625 C 290.050781 366.242188 291.765625 359.976562 294.511719 354.128906 C 300.480469 340.867188 308.53125 328.609375 318.375 317.804688 C 329.535156 305.414062 342.769531 294.992188 357.507812 286.988281 C 358.417969 286.492188 359.023438 287.976562 358.117188 288.46875 Z M 358.117188 288.46875 "/>
<path style=" stroke:none;fill-rule:nonzero;fill:rgb(100%,100%,100%);fill-opacity:1;" d="M 300.722656 343.480469 C 291.78125 337.773438 288.363281 326.539062 292.644531 316.9375 C 293.070312 316 294.574219 316.601562 294.148438 317.542969 C 290.140625 326.476562 293.351562 336.949219 301.714844 342.21875 C 302.59375 342.773438 301.597656 344.035156 300.722656 343.480469 Z M 300.722656 343.480469 "/>
<path style=" stroke:none;fill-rule:nonzero;fill:rgb(100%,100%,100%);fill-opacity:1;" d="M 292.605469 386.558594 C 302.945312 384.488281 312.109375 378.667969 318.277344 370.25 C 318.886719 369.414062 320.171875 370.390625 319.5625 371.222656 C 313.128906 379.972656 303.578125 386.011719 292.8125 388.140625 C 291.785156 388.34375 291.582031 386.757812 292.605469 386.558594 Z M 292.605469 386.558594 "/>
<path style=" stroke:none;fill-rule:nonzero;fill:rgb(100%,100%,100%);fill-opacity:1;" d="M 330.445312 307.332031 C 333.390625 310.199219 337.601562 311.421875 341.65625 310.582031 C 342.679688 310.367188 342.882812 311.953125 341.867188 312.164062 C 337.382812 313.070312 332.734375 311.734375 329.457031 308.59375 C 329.113281 308.320312 329.050781 307.828125 329.308594 307.476562 C 329.582031 307.128906 330.089844 307.0625 330.445312 307.332031 Z M 330.445312 307.332031 "/>
<path style=" stroke:none;fill-rule:nonzero;fill:rgb(100%,71.372549%,71.372549%);fill-opacity:1;" d="M 447.882812 93.058594 C 448.074219 93.886719 448.199219 94.726562 448.253906 95.574219 L 515.332031 133.625 L 531.636719 124.394531 L 549.019531 146.769531 L 521.769531 165.867188 C 517.25 169.035156 511.140625 168.890625 506.78125 165.507812 L 437.613281 111.851562 C 431.222656 114.179688 424.035156 112.375 419.558594 107.320312 C 415.085938 102.265625 414.257812 95.015625 417.484375 89.109375 C 420.707031 83.207031 427.3125 79.882812 434.070312 80.757812 C 440.824219 81.636719 446.324219 86.535156 447.882812 93.058594 Z M 447.882812 93.058594 "/>
<path style=" stroke:none;fill-rule:nonzero;fill:rgb(24.705882%,23.921569%,33.72549%);fill-opacity:1;" d="M 516.265625 129.425781 C 516.695312 127.460938 517.976562 125.777344 519.769531 124.816406 L 550.738281 108.226562 C 559.324219 101.855469 571.535156 103.515625 578.039062 111.941406 C 584.542969 120.367188 582.882812 132.378906 574.332031 138.796875 L 549.511719 163.589844 C 548.078125 165.023438 546.082031 165.769531 544.042969 165.636719 C 542.003906 165.503906 540.125 164.507812 538.894531 162.902344 L 517.523438 135.042969 C 516.292969 133.441406 515.832031 131.386719 516.265625 129.425781 Z M 516.265625 129.425781 "/>
<path style=" stroke:none;fill-rule:nonzero;fill:rgb(18.431373%,18.039216%,25.490196%);fill-opacity:1;" d="M 571.59375 32.96875 C 576.046875 19.007812 586.179688 6.199219 600.195312 1.480469 C 614.207031 -3.238281 634.726562 3.949219 645.261719 14.273438 C 664.535156 33.160156 669.238281 98.035156 655.996094 118.535156 C 653.363281 118.398438 644.277344 118.296875 641.609375 118.199219 L 637.839844 105.84375 L 637.839844 118.078125 C 617.035156 117.445312 595.375 117.839844 573.707031 118.25 C 571.761719 103.734375 567.136719 46.933594 571.59375 32.96875 Z M 571.59375 32.96875 "/>
<path style=" stroke:none;fill-rule:nonzero;fill:rgb(100%,71.372549%,71.372549%);fill-opacity:1;" d="M 565.628906 619.054688 L 546.65625 619.054688 L 537.628906 547.085938 L 565.632812 547.089844 Z M 565.628906 619.054688 "/>
<path style=" stroke:none;fill-rule:nonzero;fill:rgb(100%,71.372549%,71.372549%);fill-opacity:1;" d="M 731.742188 607.453125 L 713.378906 612.160156 L 686.183594 544.757812 L 713.28125 537.8125 Z M 731.742188 607.453125 "/>
<path style=" stroke:none;fill-rule:nonzero;fill:rgb(100%,71.372549%,71.372549%);fill-opacity:1;" d="M 627.171875 177.042969 L 631.472656 188.035156 L 630.609375 199.027344 L 546.460938 227.683594 L 550.636719 179.578125 L 560.097656 168.585938 Z M 627.171875 177.042969 "/>
<path style=" stroke:none;fill-rule:nonzero;fill:rgb(100%,71.764706%,71.764706%);fill-opacity:1;" d="M 630.621094 48.574219 C 630.621094 64.894531 617.164062 78.125 600.566406 78.125 C 583.964844 78.125 570.511719 64.894531 570.511719 48.574219 C 570.511719 32.253906 583.964844 19.023438 600.566406 19.023438 C 617.164062 19.023438 630.621094 32.253906 630.621094 48.574219 Z M 630.621094 48.574219 "/>
<path style=" stroke:none;fill-rule:nonzero;fill:rgb(18.431373%,18.039216%,25.490196%);fill-opacity:1;" d="M 579.914062 10.09375 C 591.675781 3.042969 606.410156 2.851562 618.355469 9.597656 C 630.304688 16.339844 637.566406 28.945312 637.304688 42.488281 C 620.921875 46.605469 603.464844 48.328125 584.964844 43.480469 L 580.734375 33.300781 L 578.242188 43.488281 C 572.582031 47.402344 567.117188 47.394531 561.851562 43.464844 C 561.398438 29.972656 568.277344 17.261719 579.914062 10.09375 Z M 579.914062 10.09375 "/>
<path style=" stroke:none;fill-rule:nonzero;fill:rgb(18.431373%,18.039216%,25.490196%);fill-opacity:1;" d="M 574.117188 654.484375 L 560.652344 654.484375 L 558.25 641.984375 L 552.09375 654.484375 L 516.382812 654.484375 C 512.871094 654.484375 509.765625 652.238281 508.71875 648.9375 C 507.671875 645.640625 508.929688 642.058594 511.820312 640.09375 L 540.339844 620.726562 L 540.339844 608.089844 L 570.335938 609.851562 Z M 574.117188 654.484375 "/>
<path style=" stroke:none;fill-rule:nonzero;fill:rgb(18.431373%,18.039216%,25.490196%);fill-opacity:1;" d="M 750.707031 639.203125 L 737.679688 642.542969 L 732.144531 631.042969 L 729.398438 644.664062 L 694.839844 653.523438 C 691.4375 654.394531 687.859375 652.992188 686 650.058594 C 684.140625 647.125 684.441406 643.347656 686.734375 640.730469 L 709.363281 614.917969 L 706.121094 602.6875 L 735.597656 596.953125 Z M 750.707031 639.203125 "/>
<path style=" stroke:none;fill-rule:nonzero;fill:rgb(18.431373%,18.039216%,25.490196%);fill-opacity:1;" d="M 729.414062 562.195312 L 673.792969 449.789062 L 656.332031 312.976562 C 668.371094 290.992188 646.011719 246.261719 646.011719 246.261719 L 646.011719 227.480469 L 559.402344 243.546875 C 541.6875 291.050781 533.097656 341.378906 534.070312 391.96875 L 537.558594 573.832031 L 536.464844 573.832031 C 532.679688 573.832031 529.613281 576.847656 529.613281 580.566406 C 529.613281 584.285156 532.679688 587.300781 536.464844 587.300781 L 570.714844 587.300781 C 574.496094 587.300781 577.5625 584.285156 577.5625 580.566406 C 577.5625 576.847656 574.496094 573.832031 570.714844 573.832031 L 569.828125 573.832031 L 594.417969 342.472656 L 623.003906 456.640625 L 692.089844 561.761719 C 688.429688 562.042969 685.648438 565.121094 685.792969 568.730469 C 685.941406 572.339844 688.964844 575.1875 692.640625 575.179688 L 726.886719 575.179688 C 730.171875 575.183594 732.996094 572.886719 733.617188 569.714844 C 734.234375 566.542969 732.46875 563.382812 729.414062 562.195312 Z M 729.414062 562.195312 "/>
<path style=" stroke:none;fill-rule:nonzero;fill:rgb(24.705882%,23.921569%,33.72549%);fill-opacity:1;" d="M 653.84375 257.777344 C 653.257812 255.519531 651.265625 253.890625 648.902344 253.742188 C 647.761719 240.90625 640.21875 158.601562 639.933594 156.1875 L 639.921875 156.085938 L 637.738281 110.210938 C 637.570312 106.761719 634.800781 103.980469 631.292969 103.757812 L 619.757812 103.015625 C 619.429688 103.003906 619.167969 102.738281 619.167969 102.414062 C 619.167969 97.148438 614.824219 92.875 609.46875 92.875 L 575.3125 92.875 C 570.734375 92.878906 566.875 96.230469 566.304688 100.695312 C 566.273438 101.003906 566.003906 101.234375 565.691406 101.226562 L 565.6875 101.226562 C 557.667969 101.066406 550.730469 106.691406 549.363281 114.460938 C 544.695312 141.175781 535.335938 201.800781 539.960938 235.507812 C 541.574219 247.242188 540.839844 264.890625 540.230469 274.707031 C 540.109375 276.621094 540.769531 278.507812 542.0625 279.945312 C 539.230469 280.75 537.554688 283.613281 538.273438 286.421875 C 539.011719 289.308594 541.992188 291.054688 544.925781 290.328125 L 649.867188 264.316406 C 652.800781 263.589844 654.582031 260.660156 653.84375 257.777344 Z M 653.84375 257.777344 "/>
<path style=" stroke:none;fill-rule:nonzero;fill:rgb(100%,100%,100%);fill-opacity:1;" d="M 480.398438 450.644531 C 480.359375 444.425781 475.757812 439.140625 469.515625 438.144531 L 283.453125 408.101562 C 281.671875 407.8125 279.84375 407.890625 278.09375 408.335938 L 234.488281 419.421875 L 209.46875 425.789062 L 163.300781 437.527344 C 157.566406 438.988281 153.5625 444.078125 153.5625 449.902344 L 153.5625 641.601562 C 153.589844 647.621094 157.867188 652.816406 163.851562 654.09375 L 353.367188 651.984375 C 354.257812 652.171875 355.164062 652.261719 356.074219 652.257812 C 357.398438 652.261719 358.71875 652.066406 359.984375 651.675781 L 472.578125 654.429688 C 478.035156 652.753906 481.730469 647.757812 481.664062 642.140625 Z M 480.398438 450.644531 "/>
<path style=" stroke:none;fill-rule:nonzero;fill:rgb(80%,80%,80%);fill-opacity:1;" d="M 480.398438 450.644531 C 480.359375 444.425781 475.757812 439.140625 469.515625 438.144531 L 283.453125 408.101562 C 281.671875 407.8125 279.84375 407.890625 278.09375 408.335938 L 234.488281 419.421875 L 209.46875 425.789062 L 163.300781 437.527344 C 157.566406 438.988281 153.5625 444.078125 153.5625 449.902344 L 153.5625 641.601562 C 153.589844 647.621094 157.867188 652.816406 163.851562 654.09375 L 353.367188 651.984375 C 354.257812 652.171875 355.164062 652.261719 356.074219 652.257812 C 357.398438 652.261719 358.71875 652.066406 359.984375 651.675781 L 472.578125 654.429688 C 478.035156 652.753906 481.730469 647.757812 481.664062 642.140625 Z M 471.605469 651.382812 L 359.007812 654.015625 C 357.402344 654.507812 355.695312 654.589844 354.046875 654.25 L 164.523438 650.972656 C 160.039062 650.011719 156.832031 646.117188 156.8125 641.601562 L 156.8125 449.902344 C 156.816406 445.882812 159.367188 442.289062 163.203125 440.902344 C 163.5 440.792969 163.804688 440.699219 164.113281 440.625 L 212.957031 428.207031 L 241.84375 420.859375 L 278.90625 411.433594 C 279.699219 411.226562 280.519531 411.121094 281.34375 411.125 C 281.871094 411.125 282.402344 411.167969 282.921875 411.253906 L 468.984375 441.296875 C 472.019531 441.785156 474.644531 443.652344 476.066406 446.332031 C 476.769531 447.675781 477.140625 449.160156 477.148438 450.667969 L 478.417969 642.160156 C 478.464844 646.375 475.695312 650.125 471.605469 651.382812 Z M 471.605469 651.382812 "/>
<path style=" stroke:none;fill-rule:nonzero;fill:rgb(80%,80%,80%);fill-opacity:1;" d="M 476.066406 446.332031 C 475.941406 446.414062 475.800781 446.476562 475.65625 446.515625 L 420.925781 461.0625 L 403.890625 465.585938 L 355.433594 478.460938 C 355.296875 478.496094 355.15625 478.511719 355.011719 478.515625 C 354.914062 478.515625 354.816406 478.507812 354.71875 478.496094 L 159.335938 443.46875 L 158.6875 443.351562 C 157.804688 443.1875 157.222656 442.355469 157.382812 441.488281 C 157.542969 440.621094 158.386719 440.046875 159.269531 440.199219 L 163.203125 440.902344 L 354.949219 475.277344 L 396.710938 464.179688 L 420.070312 457.972656 L 473.953125 443.648438 L 474.808594 443.425781 C 475.574219 443.226562 476.371094 443.59375 476.707031 444.300781 C 476.746094 444.378906 476.78125 444.464844 476.804688 444.554688 C 476.984375 445.242188 476.6875 445.96875 476.066406 446.332031 Z M 476.066406 446.332031 "/>
<path style=" stroke:none;fill-rule:nonzero;fill:rgb(80%,80%,80%);fill-opacity:1;" d="M 356.636719 652.632812 C 355.746094 652.632812 355.019531 651.925781 355.011719 656.4375 L 353.386719 482.320312 C 353.378906 476.050781 354.101562 475.328125 354.996094 475.320312 L 355.011719 475.320312 C 355.902344 475.320312 356.628906 476.027344 356.636719 482.292969 L 358.261719 656.410156 C 358.269531 651.902344 357.546875 652.625 356.652344 652.632812 Z M 356.636719 652.632812 "/>
<path style=" stroke:none;fill-rule:nonzero;fill:rgb(80%,80%,80%);fill-opacity:1;" d="M 421.386719 654.652344 L 403.890625 654.835938 L 396.710938 464.179688 L 213.488281 428.335938 C 213.308594 428.304688 213.132812 428.261719 212.957031 428.207031 C 211.550781 427.8125 210.320312 426.960938 209.46875 425.789062 L 234.488281 419.421875 L 241.84375 420.859375 L 415.695312 454.863281 C 417.546875 455.222656 419.144531 456.359375 420.070312 457.972656 C 420.613281 458.898438 421.378906 653.546875 421.386719 654.652344 Z M 421.386719 654.652344 "/>
<path style=" stroke:none;fill-rule:nonzero;fill:rgb(100%,100%,100%);fill-opacity:1;" d="M 561.539062 101.6875 C 561.507812 96.996094 558.039062 93.015625 553.335938 92.261719 L 413.109375 69.621094 C 411.765625 69.402344 410.390625 69.464844 409.070312 69.800781 L 376.207031 78.152344 L 357.351562 82.953125 L 322.554688 91.796875 C 318.234375 92.902344 315.21875 96.734375 315.21875 101.125 L 315.21875 214.128906 C 315.238281 218.667969 318.460938 222.578125 322.972656 223.542969 L 465.800781 253.425781 C 466.46875 253.566406 467.15625 253.636719 467.839844 253.632812 C 468.839844 253.632812 469.832031 253.484375 470.785156 253.191406 L 555.644531 226.84375 C 559.757812 225.582031 562.539062 221.816406 562.492188 217.582031 Z M 561.539062 101.6875 "/>
<path style=" stroke:none;fill-rule:nonzero;fill:rgb(100%,53.333333%,0%);fill-opacity:1;" d="M 411.523438 77.921875 C 411.421875 77.921875 411.320312 77.933594 411.21875 77.960938 L 324.703125 99.957031 C 324.164062 100.097656 323.789062 100.574219 323.789062 101.121094 L 323.789062 214.125 C 323.789062 214.691406 324.191406 215.183594 324.753906 215.300781 L 467.582031 245.183594 C 467.789062 245.226562 468.003906 245.214844 468.207031 245.152344 L 553.066406 218.804688 C 553.578125 218.648438 553.925781 218.175781 553.921875 217.648438 L 552.96875 101.753906 C 552.964844 101.167969 552.53125 100.671875 551.945312 100.578125 L 411.71875 77.9375 C 411.65625 77.925781 411.589844 77.921875 411.523438 77.921875 Z M 411.523438 77.921875 "/>
<path style=" stroke:none;fill-rule:nonzero;fill:rgb(24.705882%,23.921569%,33.72549%);fill-opacity:1;" d="M 561.539062 101.6875 C 561.507812 96.996094 558.039062 93.015625 553.335938 92.261719 L 413.109375 69.621094 C 411.765625 69.402344 410.390625 69.464844 409.070312 69.800781 L 376.207031 78.152344 L 357.351562 82.953125 L 322.554688 91.796875 C 318.234375 92.902344 315.21875 96.734375 315.21875 101.125 L 315.21875 214.128906 C 315.238281 218.667969 318.460938 222.578125 322.972656 223.542969 L 465.800781 253.425781 C 466.46875 253.566406 467.15625 253.636719 467.839844 253.632812 C 468.839844 253.632812 469.832031 253.484375 470.785156 253.191406 L 555.644531 226.84375 C 559.757812 225.582031 562.539062 221.816406 562.492188 217.582031 Z M 554.910156 224.546875 L 470.050781 250.894531 C 468.839844 251.265625 467.554688 251.328125 466.3125 251.074219 L 323.476562 221.191406 C 320.097656 220.46875 317.679688 217.53125 317.664062 214.128906 L 317.664062 101.125 C 317.667969 98.09375 319.589844 95.386719 322.480469 94.34375 C 322.707031 94.257812 322.933594 94.191406 323.167969 94.132812 L 359.980469 84.777344 L 381.75 79.238281 L 409.683594 72.132812 C 410.28125 71.976562 410.898438 71.898438 411.519531 71.902344 C 411.917969 71.902344 412.316406 71.933594 412.710938 72 L 552.933594 94.640625 C 555.222656 95.007812 557.199219 96.414062 558.273438 98.4375 C 558.800781 99.445312 559.082031 100.566406 559.089844 101.703125 L 560.042969 217.597656 C 560.082031 220.773438 557.992188 223.597656 554.910156 224.546875 Z M 554.910156 224.546875 "/>
<path style=" stroke:none;fill-rule:nonzero;fill:rgb(24.705882%,23.921569%,33.72549%);fill-opacity:1;" d="M 558.273438 98.4375 C 558.175781 98.496094 558.074219 98.542969 557.960938 98.570312 L 516.71875 109.535156 L 503.878906 112.945312 L 467.359375 122.648438 C 467.253906 122.675781 467.148438 122.6875 467.039062 122.691406 C 466.964844 122.6875 466.894531 122.683594 466.820312 122.675781 L 319.566406 96.277344 L 319.078125 96.1875 C 318.414062 96.066406 317.972656 95.4375 318.09375 94.785156 C 318.21875 94.128906 318.851562 93.695312 319.519531 93.8125 L 322.480469 94.34375 L 466.992188 120.25 L 498.464844 111.886719 L 516.074219 107.207031 L 556.679688 96.414062 L 557.324219 96.246094 C 557.902344 96.09375 558.503906 96.371094 558.753906 96.902344 C 558.785156 96.964844 558.8125 97.027344 558.828125 97.09375 C 558.964844 97.613281 558.738281 98.160156 558.273438 98.4375 Z M 558.273438 98.4375 "/>
<path style=" stroke:none;fill-rule:nonzero;fill:rgb(24.705882%,23.921569%,33.72549%);fill-opacity:1;" d="M 468.265625 253.914062 C 467.59375 253.914062 467.046875 253.382812 467.039062 252.722656 L 465.816406 121.496094 C 465.808594 120.832031 466.351562 120.289062 467.027344 120.28125 L 467.039062 120.28125 C 467.710938 120.28125 468.257812 120.816406 468.265625 121.476562 L 469.488281 252.699219 C 469.496094 253.363281 468.953125 253.90625 468.277344 253.914062 Z M 468.265625 253.914062 "/>
<path style=" stroke:none;fill-rule:nonzero;fill:rgb(24.705882%,23.921569%,33.72549%);fill-opacity:1;" d="M 516.71875 237.949219 L 503.878906 241.359375 L 498.464844 111.886719 L 360.378906 84.871094 C 360.246094 84.847656 360.113281 84.816406 359.980469 84.777344 C 358.917969 84.476562 357.992188 83.835938 357.351562 82.953125 L 376.207031 78.152344 L 381.75 79.238281 L 512.773438 104.863281 C 514.167969 105.136719 515.375 105.992188 516.074219 107.207031 C 516.480469 107.90625 516.710938 237.117188 516.71875 237.949219 Z M 516.71875 237.949219 "/>
<path style=" stroke:none;fill-rule:nonzero;fill:rgb(100%,71.372549%,71.372549%);fill-opacity:1;" d="M 510.964844 164.128906 C 511.621094 164.679688 512.234375 165.285156 512.792969 165.929688 L 589.710938 157.097656 L 597.191406 140.125 L 624.71875 147.878906 L 614.445312 179.191406 C 612.742188 184.386719 607.753906 187.851562 602.203125 187.699219 L 514.132812 185.234375 C 510.417969 190.851562 503.554688 193.621094 496.894531 192.191406 C 490.238281 190.761719 485.175781 185.429688 484.179688 178.800781 C 483.183594 172.171875 486.464844 165.628906 492.417969 162.367188 C 498.371094 159.105469 505.757812 159.808594 510.964844 164.128906 Z M 510.964844 164.128906 "/>
<path style=" stroke:none;fill-rule:nonzero;fill:rgb(24.705882%,23.921569%,33.72549%);fill-opacity:1;" d="M 587.910156 153.179688 C 587.0625 151.351562 587.066406 149.25 587.925781 147.425781 L 602.703125 115.941406 C 605.726562 105.789062 616.53125 99.960938 626.863281 102.902344 C 637.195312 105.847656 643.15625 116.460938 640.1875 126.625 L 635.320312 161.085938 C 635.039062 163.074219 633.894531 164.847656 632.175781 165.9375 C 630.460938 167.027344 628.347656 167.328125 626.386719 166.765625 L 592.328125 156.949219 C 590.367188 156.386719 588.753906 155.011719 587.910156 153.179688 Z M 587.910156 153.179688 "/>
<path style=" stroke:none;fill-rule:nonzero;fill:rgb(79.215686%,79.215686%,79.215686%);fill-opacity:1;" d="M 845.925781 656.054688 L 1.632812 656.054688 C 0.730469 656.054688 0.00390625 655.335938 0.00390625 654.453125 C 0.00390625 653.566406 0.730469 652.851562 1.632812 652.847656 L 845.925781 652.847656 C 846.824219 652.847656 847.554688 653.566406 847.554688 654.453125 C 847.554688 655.335938 846.824219 656.054688 845.925781 656.054688 Z M 845.925781 656.054688 "/>
<path style=" stroke:none;fill-rule:nonzero;fill:rgb(100%,53.333333%,0%);fill-opacity:1;" d="M 213.609375 437.394531 C 213.609375 464.035156 191.644531 485.632812 164.546875 485.632812 C 137.453125 485.632812 115.488281 464.035156 115.488281 437.394531 C 115.488281 410.753906 137.453125 389.15625 164.546875 389.15625 C 191.644531 389.15625 213.609375 410.753906 213.609375 437.394531 Z M 213.609375 437.394531 "/>
<path style=" stroke:none;fill-rule:nonzero;fill:rgb(100%,100%,100%);fill-opacity:1;" d="M 157.855469 462.5 C 156.136719 462.5 154.519531 461.707031 153.492188 460.355469 L 140.105469 442.808594 C 138.296875 440.4375 138.785156 437.074219 141.199219 435.296875 C 143.609375 433.515625 147.03125 433.996094 148.835938 436.367188 L 157.59375 447.847656 L 180.082031 414.679688 C 181.164062 413.078125 183.03125 412.164062 184.980469 412.285156 C 186.929688 412.40625 188.664062 413.542969 189.527344 415.265625 C 190.390625 416.992188 190.253906 419.035156 189.164062 420.632812 L 162.398438 460.113281 C 161.414062 461.558594 159.777344 462.449219 158.007812 462.5 C 157.957031 462.5 157.90625 462.5 157.855469 462.5 Z M 157.855469 462.5 "/>
<path style=" stroke:none;fill-rule:nonzero;fill:rgb(100%,100%,100%);fill-opacity:1;" d="M 373.441406 181.175781 C 373.289062 181.175781 373.136719 181.160156 372.988281 181.125 L 330.519531 171.695312 C 329.414062 171.449219 328.71875 170.367188 328.96875 169.28125 C 329.21875 168.191406 330.316406 167.511719 331.421875 167.753906 L 373.890625 177.183594 C 374.914062 177.410156 375.597656 178.355469 375.480469 179.378906 C 375.367188 180.398438 374.488281 181.175781 373.441406 181.175781 Z M 373.441406 181.175781 "/>
<path style=" stroke:none;fill-rule:nonzero;fill:rgb(90.196078%,90.196078%,90.196078%);fill-opacity:1;" d="M 209.996094 560.679688 C 209.847656 560.710938 209.695312 560.722656 209.542969 560.722656 L 166.011719 560 C 164.878906 559.980469 163.976562 559.0625 163.996094 557.945312 C 164.015625 556.832031 164.945312 555.945312 166.078125 555.960938 L 209.613281 556.679688 C 210.65625 556.699219 211.523438 557.484375 211.621094 558.511719 C 211.722656 559.535156 211.023438 560.46875 209.996094 560.679688 Z M 209.996094 560.679688 "/>
<path style=" stroke:none;fill-rule:nonzero;fill:rgb(90.196078%,90.196078%,90.196078%);fill-opacity:1;" d="M 225.066406 583.578125 C 224.917969 583.609375 224.765625 583.625 224.613281 583.621094 L 181.082031 582.898438 C 179.949219 582.878906 179.046875 581.960938 179.066406 580.847656 C 179.082031 579.730469 180.015625 578.84375 181.148438 578.859375 L 224.679688 579.582031 C 225.726562 579.597656 226.59375 580.386719 226.691406 581.410156 C 226.792969 582.433594 226.089844 583.367188 225.066406 583.578125 Z M 225.066406 583.578125 "/>
</g>
</svg>
