<?xml version="1.0" encoding="UTF-8"?>
<svg xmlns="http://www.w3.org/2000/svg" xmlns:xlink="http://www.w3.org/1999/xlink" width="848px" height="656px" viewBox="0 0 848 656" version="1.1">
<defs>
<filter id="alpha" filterUnits="objectBoundingBox" x="0%" y="0%" width="100%" height="100%">
  <feColorMatrix type="matrix" in="SourceGraphic" values="0 0 0 0 1 0 0 0 0 1 0 0 0 0 1 0 0 0 1 0"/>
</filter>
<mask id="mask0">
  <g filter="url(#alpha)">
<rect x="0" y="0" width="848" height="656" style="fill:rgb(0%,0%,0%);fill-opacity:0.2;stroke:none;"/>
  </g>
</mask>
<clipPath id="clip1">
  <rect x="0" y="0" width="848" height="656"/>
</clipPath>
<g id="surface5" clip-path="url(#clip1)">
<path style=" stroke:none;fill-rule:nonzero;fill:rgb(13.72549%,12.156863%,12.54902%);fill-opacity:1;" d="M 534.648438 90.328125 C 543.609375 89.992188 551.125 97.53125 551.429688 107.164062 C 551.734375 116.792969 544.710938 124.863281 535.75 125.179688 C 543.207031 122.199219 547.554688 113.84375 546.007812 105.457031 C 544.464844 97.066406 537.484375 91.121094 529.53125 91.414062 C 531.171875 90.757812 532.898438 90.390625 534.648438 90.328125 Z M 534.648438 90.328125 "/>
</g>
<mask id="mask1">
  <g filter="url(#alpha)">
<rect x="0" y="0" width="848" height="656" style="fill:rgb(0%,0%,0%);fill-opacity:0.2;stroke:none;"/>
  </g>
</mask>
<clipPath id="clip2">
  <rect x="0" y="0" width="848" height="656"/>
</clipPath>
<g id="surface8" clip-path="url(#clip2)">
<path style=" stroke:none;fill-rule:nonzero;fill:rgb(13.72549%,12.156863%,12.54902%);fill-opacity:1;" d="M 579.941406 87.242188 C 588.769531 113.199219 567.621094 163.640625 582.832031 213.269531 C 579.492188 212.609375 576.207031 211.683594 572.996094 210.503906 C 560.601562 162.527344 580.054688 114.589844 571.523438 89.511719 C 563.890625 67.066406 541.011719 56.613281 519.53125 60.425781 C 543.105469 51.785156 571.296875 61.824219 579.941406 87.242188 Z M 579.941406 87.242188 "/>
</g>
<mask id="mask2">
  <g filter="url(#alpha)">
<rect x="0" y="0" width="848" height="656" style="fill:rgb(0%,0%,0%);fill-opacity:0.2;stroke:none;"/>
  </g>
</mask>
<clipPath id="clip3">
  <rect x="0" y="0" width="848" height="656"/>
</clipPath>
<g id="surface11" clip-path="url(#clip3)">
<path style=" stroke:none;fill-rule:nonzero;fill:rgb(13.72549%,12.156863%,12.54902%);fill-opacity:1;" d="M 88.535156 360.257812 C 96 364.164062 99.109375 373.832031 95.476562 381.855469 C 91.84375 389.882812 82.847656 393.222656 75.378906 389.316406 C 82.691406 390.351562 89.621094 385.53125 91.738281 377.941406 C 93.855469 370.347656 90.535156 362.226562 83.902344 358.765625 C 85.511719 358.992188 87.074219 359.496094 88.535156 360.257812 Z M 88.535156 360.257812 "/>
</g>
<mask id="mask3">
  <g filter="url(#alpha)">
<rect x="0" y="0" width="848" height="656" style="fill:rgb(0%,0%,0%);fill-opacity:0.2;stroke:none;"/>
  </g>
</mask>
<clipPath id="clip4">
  <rect x="0" y="0" width="848" height="656"/>
</clipPath>
<g id="surface14" clip-path="url(#clip4)">
<path style=" stroke:none;fill-rule:nonzero;fill:rgb(13.72549%,12.156863%,12.54902%);fill-opacity:1;" d="M 126.875 378.824219 C 123.636719 404.191406 85.976562 435.660156 78.421875 483.390625 C 75.953125 481.296875 73.632812 479.007812 71.480469 476.542969 C 80.675781 431.480469 115.9375 401.273438 119.0625 376.761719 C 121.863281 354.824219 107.339844 335.609375 88.207031 328.730469 C 111.003906 332.632812 130.042969 353.980469 126.875 378.824219 Z M 126.875 378.824219 "/>
</g>
<mask id="mask4">
  <g filter="url(#alpha)">
<rect x="0" y="0" width="848" height="656" style="fill:rgb(0%,0%,0%);fill-opacity:0.2;stroke:none;"/>
  </g>
</mask>
<clipPath id="clip5">
  <rect x="0" y="0" width="848" height="656"/>
</clipPath>
<g id="surface17" clip-path="url(#clip5)">
<path style=" stroke:none;fill-rule:nonzero;fill:rgb(13.72549%,12.156863%,12.54902%);fill-opacity:1;" d="M 265.484375 85.339844 C 260.910156 87.730469 259.003906 93.65625 261.230469 98.574219 C 263.457031 103.488281 268.96875 105.535156 273.546875 103.144531 C 269.066406 103.777344 264.820312 100.824219 263.523438 96.171875 C 262.226562 91.519531 264.257812 86.546875 268.324219 84.425781 C 267.335938 84.5625 266.378906 84.871094 265.484375 85.339844 Z M 265.484375 85.339844 "/>
</g>
<mask id="mask5">
  <g filter="url(#alpha)">
<rect x="0" y="0" width="848" height="656" style="fill:rgb(0%,0%,0%);fill-opacity:0.2;stroke:none;"/>
  </g>
</mask>
<clipPath id="clip6">
  <rect x="0" y="0" width="848" height="656"/>
</clipPath>
<g id="surface20" clip-path="url(#clip6)">
<path style=" stroke:none;fill-rule:nonzero;fill:rgb(13.72549%,12.156863%,12.54902%);fill-opacity:1;" d="M 241.992188 96.714844 C 243.976562 112.257812 267.054688 131.539062 271.683594 160.785156 C 273.195312 159.503906 274.617188 158.101562 275.933594 156.589844 C 270.300781 128.980469 248.695312 110.46875 246.777344 95.449219 C 245.0625 82.007812 253.960938 70.234375 265.683594 66.019531 C 251.71875 68.410156 240.050781 81.492188 241.992188 96.714844 Z M 241.992188 96.714844 "/>
</g>
</defs>
<g id="surface1">
<path style=" stroke:none;fill-rule:nonzero;fill:rgb(80%,80%,80%);fill-opacity:1;" d="M 417.898438 653.78125 L 385.339844 653.78125 L 385.339844 384.503906 L 411.820312 384.503906 C 414.492188 384.503906 416.660156 386.820312 416.671875 389.691406 Z M 417.898438 653.78125 "/>
<path style=" stroke:none;fill-rule:nonzero;fill:rgb(100%,100%,100%);fill-opacity:1;" d="M 388.382812 655.207031 L 38.746094 655.207031 L 38.746094 463.433594 L 388.382812 463.433594 Z M 388.382812 655.207031 "/>
<path style=" stroke:none;fill-rule:nonzero;fill:rgb(94.901961%,94.901961%,94.901961%);fill-opacity:1;" d="M 250.574219 654.492188 L 39.410156 654.492188 L 39.410156 464.148438 L 387.722656 464.148438 L 387.722656 507.113281 C 387.636719 588.472656 326.28125 654.402344 250.574219 654.492188 Z M 250.574219 654.492188 "/>
<path style=" stroke:none;fill-rule:nonzero;fill:rgb(94.901961%,94.901961%,94.901961%);fill-opacity:1;" d="M 412.597656 392.152344 C 412.421875 392.507812 412.285156 392.886719 412.191406 393.277344 L 400.132812 443.214844 L 387.058594 469.832031 L 40.074219 469.832031 L 40.074219 463.203125 L 59.828125 443.214844 L 82.875 395.847656 C 83.890625 393.757812 85.226562 391.863281 86.828125 390.246094 C 90.476562 386.554688 95.296875 384.503906 100.308594 384.503906 L 408.308594 384.503906 C 410.007812 384.503906 411.585938 385.460938 412.460938 387.023438 C 413.339844 388.589844 413.390625 390.535156 412.597656 392.152344 Z M 412.597656 392.152344 "/>
<path style=" stroke:none;fill-rule:nonzero;fill:rgb(90.196078%,90.196078%,90.196078%);fill-opacity:1;" d="M 388.382812 655.207031 L 38.746094 655.207031 L 38.746094 463.433594 L 388.382812 463.433594 Z M 41.402344 652.355469 L 385.730469 652.355469 L 385.730469 466.285156 L 41.402344 466.285156 Z M 41.402344 652.355469 "/>
<path style=" stroke:none;fill-rule:nonzero;fill:rgb(80%,80%,80%);fill-opacity:1;" d="M 406.574219 417.699219 L 400.132812 443.214844 L 59.828125 443.214844 L 70.824219 421.976562 Z M 406.574219 417.699219 "/>
<path style=" stroke:none;fill-rule:nonzero;fill:rgb(100%,100%,100%);fill-opacity:1;" d="M 51.640625 563.925781 L 107.375 563.925781 L 107.375 567.238281 L 51.640625 567.238281 Z M 51.640625 563.925781 "/>
<path style=" stroke:none;fill-rule:nonzero;fill:rgb(100%,100%,100%);fill-opacity:1;" d="M 51.640625 575.527344 L 107.375 575.527344 L 107.375 578.839844 L 51.640625 578.839844 Z M 51.640625 575.527344 "/>
<path style=" stroke:none;fill-rule:nonzero;fill:rgb(100%,100%,100%);fill-opacity:1;" d="M 51.640625 587.125 L 107.375 587.125 L 107.375 590.441406 L 51.640625 590.441406 Z M 51.640625 587.125 "/>
<path style=" stroke:none;fill-rule:nonzero;fill:rgb(100%,100%,100%);fill-opacity:1;" d="M 93.277344 505.460938 C 93.277344 517.359375 84.304688 527.003906 73.230469 527.003906 C 62.160156 527.003906 53.183594 517.359375 53.183594 505.460938 C 53.183594 493.5625 62.160156 483.917969 73.230469 483.917969 C 84.304688 483.917969 93.277344 493.5625 93.277344 505.460938 Z M 93.277344 505.460938 "/>
<path style=" stroke:none;fill-rule:nonzero;fill:rgb(80%,80%,80%);fill-opacity:1;" d="M 292.960938 428.742188 L 275.933594 428.742188 L 275.933594 287.921875 L 289.78125 287.921875 C 291.175781 287.921875 292.308594 289.136719 292.316406 290.636719 Z M 292.960938 428.742188 "/>
<path style=" stroke:none;fill-rule:nonzero;fill:rgb(100%,100%,100%);fill-opacity:1;" d="M 277.523438 429.488281 L 94.679688 429.488281 L 94.679688 329.203125 L 277.523438 329.203125 Z M 277.523438 429.488281 "/>
<path style=" stroke:none;fill-rule:nonzero;fill:rgb(94.901961%,94.901961%,94.901961%);fill-opacity:1;" d="M 205.457031 429.117188 L 95.027344 429.117188 L 95.027344 329.574219 L 277.175781 329.574219 L 277.175781 352.042969 C 277.132812 394.589844 245.046875 429.066406 205.457031 429.117188 Z M 205.457031 429.117188 "/>
<path style=" stroke:none;fill-rule:nonzero;fill:rgb(94.901961%,94.901961%,94.901961%);fill-opacity:1;" d="M 290.1875 291.921875 C 290.09375 292.109375 290.023438 292.308594 289.972656 292.511719 L 283.667969 318.628906 L 276.828125 332.546875 L 95.375 332.546875 L 95.375 329.082031 L 105.707031 318.628906 L 117.757812 293.855469 C 118.289062 292.761719 118.988281 291.773438 119.824219 290.925781 C 121.730469 288.996094 124.253906 287.921875 126.875 287.921875 L 287.941406 287.921875 C 288.832031 287.921875 289.65625 288.425781 290.117188 289.242188 C 290.574219 290.0625 290.601562 291.078125 290.1875 291.921875 Z M 290.1875 291.921875 "/>
<path style=" stroke:none;fill-rule:nonzero;fill:rgb(90.196078%,90.196078%,90.196078%);fill-opacity:1;" d="M 277.523438 429.488281 L 94.679688 429.488281 L 94.679688 329.203125 L 277.523438 329.203125 Z M 96.066406 427.996094 L 276.136719 427.996094 L 276.136719 330.691406 L 96.066406 330.691406 Z M 96.066406 427.996094 "/>
<path style=" stroke:none;fill-rule:nonzero;fill:rgb(80%,80%,80%);fill-opacity:1;" d="M 287.035156 305.285156 L 283.667969 318.628906 L 105.707031 318.628906 L 111.457031 307.519531 Z M 287.035156 305.285156 "/>
<path style=" stroke:none;fill-rule:nonzero;fill:rgb(100%,100%,100%);fill-opacity:1;" d="M 101.421875 381.753906 L 130.570312 381.753906 L 130.570312 383.488281 L 101.421875 383.488281 Z M 101.421875 381.753906 "/>
<path style=" stroke:none;fill-rule:nonzero;fill:rgb(100%,100%,100%);fill-opacity:1;" d="M 101.421875 387.820312 L 130.570312 387.820312 L 130.570312 389.554688 L 101.421875 389.554688 Z M 101.421875 387.820312 "/>
<path style=" stroke:none;fill-rule:nonzero;fill:rgb(100%,100%,100%);fill-opacity:1;" d="M 101.421875 393.886719 L 130.570312 393.886719 L 130.570312 395.621094 L 101.421875 395.621094 Z M 101.421875 393.886719 "/>
<path style=" stroke:none;fill-rule:nonzero;fill:rgb(100%,100%,100%);fill-opacity:1;" d="M 123.199219 351.179688 C 123.199219 357.402344 118.503906 362.445312 112.714844 362.445312 C 106.921875 362.445312 102.230469 357.402344 102.230469 351.179688 C 102.230469 344.957031 106.921875 339.914062 112.714844 339.914062 C 118.503906 339.914062 123.199219 344.957031 123.199219 351.179688 Z M 123.199219 351.179688 "/>
<path style=" stroke:none;fill-rule:nonzero;fill:rgb(94.901961%,94.901961%,94.901961%);fill-opacity:1;" d="M 794.753906 655.109375 L 794.648438 654.5 C 791.160156 633.839844 796.308594 612.574219 808.722656 596.359375 C 812.195312 591.894531 816.179688 587.917969 820.578125 584.523438 L 820.996094 584.195312 L 821.179688 584.714844 C 823.367188 590.914062 826.128906 597.121094 827.386719 599.867188 L 828.234375 579.359375 L 828.71875 579.082031 C 833.261719 576.464844 838.828125 577.082031 842.777344 580.640625 C 846.863281 584.167969 848.539062 590.011719 847.011719 595.398438 C 846.351562 597.808594 845.730469 600.308594 845.125 602.726562 C 843.054688 611.035156 840.914062 619.625 836.761719 626.855469 C 830.300781 637.878906 819.550781 645.175781 807.515625 646.714844 Z M 794.753906 655.109375 "/>
<path style=" stroke:none;fill-rule:nonzero;fill:rgb(80%,80%,80%);fill-opacity:1;" d="M 847.5625 654.859375 C 847.5625 655.308594 847.398438 655.742188 847.101562 656.058594 C 846.804688 656.378906 846.402344 656.554688 845.984375 656.554688 L 1.578125 656.554688 C 0.707031 656.554688 0 655.796875 0 654.859375 C 0 653.921875 0.707031 653.160156 1.578125 653.160156 L 845.984375 653.160156 C 846.402344 653.160156 846.804688 653.339844 847.101562 653.65625 C 847.398438 653.976562 847.5625 654.40625 847.5625 654.859375 Z M 847.5625 654.859375 "/>
<path style=" stroke:none;fill-rule:nonzero;fill:rgb(100%,72.156863%,72.156863%);fill-opacity:1;" d="M 656.03125 220.648438 L 631.863281 216.929688 C 623.6875 231.617188 620.78125 270.714844 620.78125 270.714844 L 597.128906 331.128906 C 592.796875 334.292969 591.207031 340.339844 593.355469 345.46875 C 595.507812 350.601562 600.777344 353.328125 605.847656 351.9375 C 610.921875 350.546875 614.332031 345.441406 613.933594 339.832031 L 652.769531 269.507812 Z M 656.03125 220.648438 "/>
<path style=" stroke:none;fill-rule:nonzero;fill:rgb(90.196078%,90.196078%,90.196078%);fill-opacity:1;" d="M 652.183594 148.542969 C 659.757812 149.804688 666.417969 154.621094 670.351562 161.691406 C 674.285156 168.761719 675.085938 177.34375 672.535156 185.109375 L 667.40625 200.734375 C 667.40625 200.734375 664.613281 247.773438 653.964844 261.050781 L 621.292969 257.871094 C 621.292969 257.871094 627.265625 234.140625 622.679688 222.65625 C 619.871094 215.625 620.027344 191.335938 622.796875 171.582031 C 623.84375 164.332031 627.53125 157.832031 633.042969 153.511719 C 638.558594 149.1875 645.445312 147.402344 652.183594 148.542969 Z M 652.183594 148.542969 "/>
<path style=" stroke:none;fill-rule:nonzero;fill:rgb(100%,71.372549%,71.372549%);fill-opacity:1;" d="M 732.0625 636.632812 L 717.503906 636.628906 L 710.578125 576.28125 L 732.0625 576.28125 Z M 732.0625 636.632812 "/>
<path style=" stroke:none;fill-rule:nonzero;fill:rgb(18.431373%,18.039216%,25.490196%);fill-opacity:1;" d="M 732.574219 652.953125 L 687.800781 652.949219 L 687.800781 652.34375 C 687.804688 642 695.605469 633.617188 705.230469 633.617188 L 713.40625 626.949219 L 728.667969 633.617188 L 732.574219 633.617188 Z M 732.574219 652.953125 "/>
<path style=" stroke:none;fill-rule:nonzero;fill:rgb(100%,71.372549%,71.372549%);fill-opacity:1;" d="M 668.765625 561.839844 L 655.316406 567.832031 L 627.40625 514.9375 L 647.253906 506.09375 Z M 668.765625 561.839844 "/>
<path style=" stroke:none;fill-rule:nonzero;fill:rgb(18.431373%,18.039216%,25.490196%);fill-opacity:1;" d="M 675.054688 576.703125 L 633.699219 595.132812 L 633.484375 594.570312 C 629.796875 585.019531 634.015625 574.0625 642.902344 570.101562 L 642.90625 570.097656 L 648.082031 560.574219 L 664.554688 560.453125 L 668.164062 558.84375 Z M 675.054688 576.703125 "/>
<path style=" stroke:none;fill-rule:nonzero;fill:rgb(18.431373%,18.039216%,25.490196%);fill-opacity:1;" d="M 748.707031 293.339844 L 645.382812 304.9375 L 631.5625 354.964844 L 583.699219 437.621094 L 636.546875 541.964844 L 655.160156 524.015625 L 637.292969 439.753906 L 690.617188 377.894531 L 700.726562 373.386719 L 708.753906 602.9375 L 738.441406 603.464844 L 751.433594 350.164062 C 757.675781 327.789062 755.796875 309.3125 748.707031 293.339844 Z M 748.707031 293.339844 "/>
<path style=" stroke:none;fill-rule:nonzero;fill:rgb(90.196078%,90.196078%,90.196078%);fill-opacity:1;" d="M 710.828125 134.976562 L 693.867188 114.453125 L 667.070312 117.65625 L 649.914062 143.457031 C 630.949219 148.140625 618.703125 167.941406 622.027344 188.542969 C 628.6875 229.742188 651.3125 269.699219 643.84375 290.023438 C 632.5 320.878906 631.808594 333.464844 658.957031 329.140625 C 686.101562 324.8125 777.050781 314.839844 759.417969 295.890625 C 741.785156 276.945312 737.914062 245.28125 737.914062 245.28125 L 737.207031 172.839844 C 738.722656 164.007812 736.734375 154.894531 731.726562 147.703125 C 726.714844 140.515625 719.140625 135.902344 710.828125 134.976562 Z M 710.828125 134.976562 "/>
<path style=" stroke:none;fill-rule:nonzero;fill:rgb(100%,72.156863%,72.156863%);fill-opacity:1;" d="M 707.429688 77.238281 C 707.429688 94.890625 694.113281 109.203125 677.683594 109.203125 C 661.257812 109.203125 647.9375 94.890625 647.9375 77.238281 C 647.9375 59.582031 661.257812 45.269531 677.683594 45.269531 C 694.113281 45.269531 707.429688 59.582031 707.429688 77.238281 Z M 707.429688 77.238281 "/>
<path style=" stroke:none;fill-rule:nonzero;fill:rgb(18.431373%,18.039216%,25.490196%);fill-opacity:1;" d="M 714.335938 75.339844 C 713.007812 81.816406 710.613281 87.984375 707.261719 93.554688 C 706.371094 95.453125 705.042969 97.074219 703.402344 98.261719 C 701.6875 99.445312 699.433594 99.140625 698.042969 97.542969 L 697.320312 96.910156 C 698.738281 95.96875 700.007812 94.789062 701.070312 93.410156 C 702.140625 92.007812 702.515625 90.136719 702.078125 88.386719 C 701.542969 86.617188 699.800781 85.617188 698.136719 86.125 C 696.394531 86.859375 695.335938 89.566406 693.515625 89.148438 C 692.039062 88.804688 691.730469 86.714844 691.730469 85.074219 C 691.785156 76.492188 687.925781 64.292969 684.9375 64.667969 C 681.917969 64.847656 678.894531 64.410156 676.027344 63.386719 C 673.15625 62.363281 670.125 61.945312 667.101562 62.164062 C 666.886719 62.191406 666.675781 62.234375 666.445312 62.277344 C 665.960938 60.648438 665.296875 59.085938 664.464844 57.628906 C 664.558594 59.386719 664.476562 61.15625 664.222656 62.898438 C 661.820312 63.960938 659.335938 64.804688 656.796875 65.417969 C 654.039062 65.835938 647.96875 74.707031 647.6875 73.796875 C 647.203125 72.167969 646.535156 70.605469 645.703125 69.148438 C 645.796875 70.910156 645.714844 72.675781 645.460938 74.417969 C 645.449219 74.488281 645.449219 74.546875 645.433594 74.621094 C 644.09375 72.703125 643.277344 70.371094 643.734375 72.15625 C 639.246094 61.242188 640.988281 53.421875 648.046875 44.222656 C 649.425781 42.242188 651.246094 40.671875 653.339844 39.65625 C 655.476562 38.648438 657.945312 38.910156 659.855469 40.347656 C 665.71875 34.570312 674.039062 32.664062 681.589844 35.367188 C 688.945312 38.117188 694.613281 39.730469 695.738281 48.023438 C 701.820312 46.972656 708.078125 50.6875 711.429688 56.230469 C 714.765625 61.789062 715.449219 68.84375 714.335938 75.339844 Z M 714.335938 75.339844 "/>
<path style=" stroke:none;fill-rule:nonzero;fill:rgb(24.705882%,23.921569%,33.72549%);fill-opacity:1;" d="M 690.214844 340.847656 L 680.34375 340.847656 L 680.34375 259.191406 L 688.371094 259.191406 C 689.179688 259.191406 689.839844 259.894531 689.84375 260.765625 Z M 690.214844 340.847656 "/>
<path style=" stroke:none;fill-rule:nonzero;fill:rgb(100%,100%,100%);fill-opacity:1;" d="M 681.265625 341.28125 L 575.242188 341.28125 L 575.242188 283.128906 L 681.265625 283.128906 Z M 681.265625 341.28125 "/>
<path style=" stroke:none;fill-rule:nonzero;fill:rgb(100%,53.333333%,0%);fill-opacity:1;" d="M 639.476562 341.066406 L 575.441406 341.066406 L 575.441406 283.34375 L 681.0625 283.34375 L 681.0625 296.375 C 681.039062 321.042969 662.433594 341.039062 639.476562 341.066406 Z M 639.476562 341.066406 "/>
<path style=" stroke:none;fill-rule:nonzero;fill:rgb(24.705882%,23.921569%,33.72549%);fill-opacity:1;" d="M 688.605469 261.511719 C 688.554688 261.621094 688.511719 261.734375 688.484375 261.851562 L 684.828125 276.996094 L 680.863281 285.066406 L 575.644531 285.066406 L 575.644531 283.058594 L 581.632812 276.996094 L 588.621094 262.632812 C 588.929688 262 589.335938 261.425781 589.820312 260.933594 C 590.925781 259.816406 592.386719 259.191406 593.90625 259.191406 L 687.304688 259.191406 C 687.820312 259.191406 688.300781 259.484375 688.566406 259.957031 C 688.832031 260.433594 688.847656 261.023438 688.605469 261.511719 Z M 688.605469 261.511719 "/>
<path style=" stroke:none;fill-rule:nonzero;fill:rgb(24.705882%,23.921569%,33.72549%);fill-opacity:1;" d="M 681.265625 341.28125 L 575.242188 341.28125 L 575.242188 283.128906 L 681.265625 283.128906 Z M 576.046875 340.417969 L 680.460938 340.417969 L 680.460938 283.992188 L 576.046875 283.992188 Z M 576.046875 340.417969 "/>
<path style=" stroke:none;fill-rule:nonzero;fill:rgb(100%,53.333333%,0%);fill-opacity:1;" d="M 686.78125 269.257812 L 684.828125 276.996094 L 581.632812 276.996094 L 584.96875 270.554688 Z M 686.78125 269.257812 "/>
<path style=" stroke:none;fill-rule:nonzero;fill:rgb(100%,100%,100%);fill-opacity:1;" d="M 579.148438 313.601562 L 596.050781 313.601562 L 596.050781 314.605469 L 579.148438 314.605469 Z M 579.148438 313.601562 "/>
<path style=" stroke:none;fill-rule:nonzero;fill:rgb(100%,100%,100%);fill-opacity:1;" d="M 579.148438 317.117188 L 596.050781 317.117188 L 596.050781 318.125 L 579.148438 318.125 Z M 579.148438 317.117188 "/>
<path style=" stroke:none;fill-rule:nonzero;fill:rgb(100%,100%,100%);fill-opacity:1;" d="M 579.148438 320.636719 L 596.050781 320.636719 L 596.050781 321.640625 L 579.148438 321.640625 Z M 579.148438 320.636719 "/>
<path style=" stroke:none;fill-rule:nonzero;fill:rgb(100%,100%,100%);fill-opacity:1;" d="M 591.777344 295.871094 C 591.777344 299.480469 589.054688 302.40625 585.695312 302.40625 C 582.339844 302.40625 579.617188 299.480469 579.617188 295.871094 C 579.617188 292.265625 582.339844 289.339844 585.695312 289.339844 C 589.054688 289.339844 591.777344 292.265625 591.777344 295.871094 Z M 591.777344 295.871094 "/>
<path style=" stroke:none;fill-rule:nonzero;fill:rgb(100%,72.156863%,72.156863%);fill-opacity:1;" d="M 731.460938 213.183594 L 707.292969 209.464844 C 699.117188 224.152344 696.214844 263.25 696.214844 263.25 L 672.558594 323.664062 C 668.230469 326.824219 666.636719 332.875 668.789062 338.003906 C 670.9375 343.132812 676.207031 345.863281 681.28125 344.472656 C 686.351562 343.082031 689.761719 337.972656 689.363281 332.363281 L 728.203125 262.042969 Z M 731.460938 213.183594 "/>
<path style=" stroke:none;fill-rule:nonzero;fill:rgb(90.196078%,90.196078%,90.196078%);fill-opacity:1;" d="M 718.363281 141.078125 C 725.9375 142.335938 732.59375 147.15625 736.527344 154.226562 C 740.460938 161.292969 741.261719 169.878906 738.714844 177.644531 L 733.585938 193.265625 C 733.585938 193.265625 740.046875 240.304688 729.398438 253.585938 L 696.722656 250.40625 C 696.722656 250.40625 702.699219 226.675781 698.113281 215.191406 C 695.304688 208.160156 695.460938 183.871094 698.226562 164.113281 C 700.339844 149.027344 704.332031 138.742188 718.363281 141.078125 Z M 718.363281 141.078125 "/>
<path style=" stroke:none;fill-rule:nonzero;fill:rgb(100%,53.333333%,0%);fill-opacity:1;" d="M 513.128906 63.246094 C 488.539062 76.425781 478.546875 108.53125 490.808594 134.957031 C 503.074219 161.382812 547.390625 206.449219 582.75 213.257812 C 567.539062 163.632812 588.6875 113.1875 579.859375 87.230469 C 570.425781 59.496094 537.71875 50.066406 513.128906 63.246094 Z M 513.128906 63.246094 "/>
<path style=" stroke:none;fill-rule:nonzero;fill:rgb(100%,100%,100%);fill-opacity:1;" d="M 545.929688 108.65625 C 545.929688 118.289062 538.664062 126.09375 529.703125 126.09375 C 520.742188 126.09375 513.476562 118.289062 513.476562 108.65625 C 513.476562 99.027344 520.742188 91.21875 529.703125 91.21875 C 538.664062 91.21875 545.929688 99.027344 545.929688 108.65625 Z M 545.929688 108.65625 "/>
<path style=" stroke:none;fill-rule:nonzero;fill:rgb(100%,53.333333%,0%);fill-opacity:1;" d="M 593.066406 229.828125 C 593.066406 236.132812 588.308594 241.246094 582.4375 241.246094 C 576.566406 241.246094 571.808594 236.132812 571.808594 229.828125 C 571.808594 223.519531 576.566406 218.40625 582.4375 218.40625 C 588.308594 218.40625 593.066406 223.519531 593.066406 229.828125 Z M 593.066406 229.828125 "/>
<use xlink:href="#surface5" mask="url(#mask0)"/>
<use xlink:href="#surface8" mask="url(#mask1)"/>
<path style=" stroke:none;fill-rule:nonzero;fill:rgb(81.960784%,82.745098%,83.137255%);fill-opacity:1;" d="M 81.828125 328.058594 C 56.371094 327.402344 35.242188 349.042969 34.628906 376.398438 C 34.019531 403.75 52.144531 461.300781 78.359375 483.34375 C 85.914062 435.613281 123.574219 404.144531 126.8125 378.777344 C 130.269531 351.667969 107.28125 328.714844 81.828125 328.058594 Z M 81.828125 328.058594 "/>
<path style=" stroke:none;fill-rule:nonzero;fill:rgb(100%,100%,100%);fill-opacity:1;" d="M 92.128906 372.96875 C 92.128906 381.894531 85.394531 389.128906 77.09375 389.128906 C 68.789062 389.128906 62.054688 381.894531 62.054688 372.96875 C 62.054688 364.046875 68.789062 356.8125 77.09375 356.8125 C 85.394531 356.8125 92.128906 364.046875 92.128906 372.96875 Z M 92.128906 372.96875 "/>
<path style=" stroke:none;fill-rule:nonzero;fill:rgb(81.960784%,82.745098%,83.137255%);fill-opacity:1;" d="M 81.269531 496.769531 C 81.269531 502.613281 76.859375 507.351562 71.421875 507.351562 C 65.984375 507.351562 61.574219 502.613281 61.574219 496.769531 C 61.574219 490.921875 65.984375 486.183594 71.421875 486.183594 C 76.859375 486.183594 81.269531 490.921875 81.269531 496.769531 Z M 81.269531 496.769531 "/>
<use xlink:href="#surface11" mask="url(#mask2)"/>
<use xlink:href="#surface14" mask="url(#mask3)"/>
<path style=" stroke:none;fill-rule:nonzero;fill:rgb(100%,71.372549%,71.372549%);fill-opacity:1;" d="M 256.738281 117.53125 C 249.59375 118.03125 244.121094 124.554688 244.394531 132.242188 C 244.429688 132.996094 244.527344 133.742188 244.679688 134.476562 L 205.667969 160.886719 L 227.234375 171.136719 L 260.976562 144.484375 C 266.699219 142.605469 270.527344 136.816406 270.292969 130.386719 C 269.957031 122.910156 264.042969 117.144531 257.082031 117.507812 C 256.96875 117.511719 256.851562 117.519531 256.738281 117.53125 Z M 256.738281 117.53125 "/>
<path style=" stroke:none;fill-rule:nonzero;fill:rgb(100%,53.333333%,0%);fill-opacity:1;" d="M 219.117188 148.882812 L 228.785156 170.320312 L 190.554688 196.757812 C 185.027344 200.613281 178.03125 201.117188 172.070312 198.085938 C 164.75 194.320312 160.628906 185.804688 161.964844 177.203125 L 174.367188 101.097656 C 176.097656 90.042969 185.570312 82.363281 195.9375 83.617188 C 206.167969 84.820312 213.554688 94.707031 212.4375 105.699219 C 212.414062 105.90625 212.390625 106.109375 212.363281 106.316406 C 212.269531 107.046875 212.140625 107.773438 211.972656 108.488281 L 198.429688 162.613281 Z M 219.117188 148.882812 "/>
<path style=" stroke:none;fill-rule:nonzero;fill:rgb(100%,72.156863%,72.156863%);fill-opacity:1;" d="M 167.160156 182.117188 L 221.835938 182.117188 L 221.835938 240.867188 L 167.160156 240.867188 Z M 167.160156 182.117188 "/>
<path style=" stroke:none;fill-rule:nonzero;fill:rgb(100%,71.372549%,71.372549%);fill-opacity:1;" d="M 351.492188 355.144531 L 372.371094 347.597656 L 384 408.671875 L 369.851562 413.789062 Z M 351.492188 355.144531 "/>
<path style=" stroke:none;fill-rule:nonzero;fill:rgb(100%,71.372549%,71.372549%);fill-opacity:1;" d="M 316.101562 350.453125 L 336.8125 342.382812 L 349.761719 403.152344 L 335.726562 408.617188 Z M 316.101562 350.453125 "/>
<path style=" stroke:none;fill-rule:nonzero;fill:rgb(18.431373%,18.039216%,25.490196%);fill-opacity:1;" d="M 169.121094 256.21875 C 158.164062 334.722656 304.09375 288.308594 304.09375 288.308594 L 349.847656 356.136719 L 376.632812 350.902344 C 376.632812 350.902344 364.578125 310.183594 343.054688 255.597656 C 333.496094 231.359375 224.949219 237.28125 224.949219 237.28125 L 222.695312 218.273438 L 160.597656 216.964844 Z M 169.121094 256.21875 "/>
<path style=" stroke:none;fill-rule:nonzero;fill:rgb(18.431373%,18.039216%,25.490196%);fill-opacity:1;" d="M 274.53125 293.570312 L 308.277344 270.988281 C 332.980469 323.996094 340.261719 346.953125 340.261719 346.953125 L 316.90625 354.011719 Z M 274.53125 293.570312 "/>
<path style=" stroke:none;fill-rule:nonzero;fill:rgb(100%,53.333333%,0%);fill-opacity:1;" d="M 200.355469 86.644531 L 189.351562 71.441406 L 173.652344 70.710938 L 172.085938 85.007812 L 164.308594 88.863281 C 156.542969 120.570312 155.34375 153.722656 160.792969 185.980469 C 162.917969 188.128906 163.792969 191.34375 163.082031 194.382812 L 162.578125 196.542969 L 162.625 196.621094 C 164.28125 199.429688 164.84375 202.820312 164.191406 206.070312 L 160.476562 213.160156 C 157.777344 218.324219 157.328125 224.5 159.25 230.050781 C 161.171875 235.601562 165.269531 239.960938 170.453125 241.96875 C 193.285156 250.863281 214.6875 254.175781 230.523438 229.21875 L 235.503906 142.25 Z M 200.355469 86.644531 "/>
<path style=" stroke:none;fill-rule:nonzero;fill:rgb(100%,72.156863%,72.156863%);fill-opacity:1;" d="M 217.851562 44.289062 C 217.851562 61.515625 204.855469 75.480469 188.828125 75.480469 C 172.796875 75.480469 159.804688 61.515625 159.804688 44.289062 C 159.804688 27.066406 172.796875 13.101562 188.828125 13.101562 C 204.855469 13.101562 217.851562 27.066406 217.851562 44.289062 Z M 217.851562 44.289062 "/>
<path style=" stroke:none;fill-rule:nonzero;fill:rgb(18.431373%,18.039216%,25.490196%);fill-opacity:1;" d="M 174.257812 6.691406 C 161.96875 6.945312 152.222656 19.195312 152.488281 34.050781 C 143.390625 44.25 141.1875 94.40625 148.789062 107.75 C 162.6875 109.484375 171.144531 72.527344 183.335938 77.867188 L 184.941406 69.804688 L 188.582031 80.308594 C 191.679688 81.839844 194.753906 83.527344 197.804688 85.359375 C 199.996094 74.550781 199.453125 64.046875 193.558594 54.894531 C 188.324219 46.765625 201.066406 37.113281 210.179688 38.480469 L 210.042969 31.011719 L 212.332031 38.433594 C 215.886719 41.238281 219.816406 40.222656 223.84375 38.195312 C 230.378906 1.707031 179.792969 -8.273438 174.257812 6.691406 Z M 174.257812 6.691406 "/>
<path style=" stroke:none;fill-rule:nonzero;fill:rgb(18.431373%,18.039216%,25.490196%);fill-opacity:1;" d="M 363.417969 424.117188 L 372.722656 422.8125 L 373.234375 413.140625 L 378.636719 421.980469 L 403.308594 418.519531 C 405.734375 418.179688 407.675781 416.179688 408.09375 413.589844 C 408.515625 410.996094 407.316406 408.414062 405.140625 407.210938 L 383.660156 395.355469 L 382.5 385.8125 L 361.9375 390.050781 Z M 363.417969 424.117188 "/>
<path style=" stroke:none;fill-rule:nonzero;fill:rgb(18.431373%,18.039216%,25.490196%);fill-opacity:1;" d="M 338.847656 424.207031 L 347.289062 419.800781 L 344.925781 410.453125 L 352.652344 417.003906 L 375.035156 405.324219 C 377.238281 404.171875 378.488281 401.617188 378.125 399.019531 C 377.757812 396.417969 375.859375 394.371094 373.441406 393.972656 L 349.570312 390.035156 L 345.660156 381.378906 L 327.402344 392.394531 Z M 338.847656 424.207031 "/>
<path style=" stroke:none;fill-rule:nonzero;fill:rgb(80%,80%,80%);fill-opacity:1;" d="M 211.445312 216.21875 L 221.792969 216.21875 L 221.792969 130.628906 L 213.378906 130.628906 C 212.53125 130.628906 211.839844 131.363281 211.835938 132.277344 Z M 211.445312 216.21875 "/>
<path style=" stroke:none;fill-rule:nonzero;fill:rgb(100%,100%,100%);fill-opacity:1;" d="M 220.828125 155.714844 L 331.960938 155.714844 L 331.960938 216.671875 L 220.828125 216.671875 Z M 220.828125 155.714844 "/>
<path style=" stroke:none;fill-rule:nonzero;fill:rgb(94.901961%,94.901961%,94.901961%);fill-opacity:1;" d="M 221.039062 169.601562 L 221.039062 155.941406 L 331.75 155.941406 L 331.75 216.445312 L 264.628906 216.445312 C 240.566406 216.414062 221.066406 195.460938 221.039062 169.601562 Z M 221.039062 169.601562 "/>
<path style=" stroke:none;fill-rule:nonzero;fill:rgb(94.901961%,94.901961%,94.901961%);fill-opacity:1;" d="M 213.132812 133.058594 C 213.1875 133.171875 213.230469 133.292969 213.261719 133.417969 L 217.09375 149.289062 L 221.25 157.75 L 331.539062 157.75 L 331.539062 155.640625 L 325.257812 149.289062 L 317.933594 134.234375 C 317.609375 133.570312 317.1875 132.96875 316.679688 132.453125 C 315.519531 131.28125 313.984375 130.628906 312.394531 130.628906 L 214.496094 130.628906 C 213.953125 130.628906 213.453125 130.933594 213.175781 131.429688 C 212.894531 131.925781 212.878906 132.546875 213.132812 133.058594 Z M 213.132812 133.058594 "/>
<path style=" stroke:none;fill-rule:nonzero;fill:rgb(90.196078%,90.196078%,90.196078%);fill-opacity:1;" d="M 220.828125 155.714844 L 331.960938 155.714844 L 331.960938 216.671875 L 220.828125 216.671875 Z M 331.117188 215.765625 L 221.671875 215.765625 L 221.671875 156.621094 L 331.117188 156.621094 Z M 331.117188 215.765625 "/>
<path style=" stroke:none;fill-rule:nonzero;fill:rgb(80%,80%,80%);fill-opacity:1;" d="M 215.046875 141.179688 L 217.09375 149.289062 L 325.257812 149.289062 L 321.761719 142.539062 Z M 215.046875 141.179688 "/>
<path style=" stroke:none;fill-rule:nonzero;fill:rgb(100%,100%,100%);fill-opacity:1;" d="M 310.144531 187.65625 L 327.863281 187.65625 L 327.863281 188.710938 L 310.144531 188.710938 Z M 310.144531 187.65625 "/>
<path style=" stroke:none;fill-rule:nonzero;fill:rgb(100%,100%,100%);fill-opacity:1;" d="M 310.144531 191.34375 L 327.863281 191.34375 L 327.863281 192.398438 L 310.144531 192.398438 Z M 310.144531 191.34375 "/>
<path style=" stroke:none;fill-rule:nonzero;fill:rgb(100%,100%,100%);fill-opacity:1;" d="M 310.144531 195.03125 L 327.863281 195.03125 L 327.863281 196.085938 L 310.144531 196.085938 Z M 310.144531 195.03125 "/>
<path style=" stroke:none;fill-rule:nonzero;fill:rgb(100%,100%,100%);fill-opacity:1;" d="M 327.371094 169.074219 C 327.371094 172.855469 324.519531 175.921875 321 175.921875 C 317.480469 175.921875 314.628906 172.855469 314.628906 169.074219 C 314.628906 165.292969 317.480469 162.226562 321 162.226562 C 324.519531 162.226562 327.371094 165.292969 327.371094 169.074219 Z M 327.371094 169.074219 "/>
<path style=" stroke:none;fill-rule:nonzero;fill:rgb(81.960784%,82.745098%,83.137255%);fill-opacity:1;" d="M 269.59375 65.609375 C 285.191406 65.207031 298.140625 78.464844 298.515625 95.226562 C 298.890625 111.988281 287.785156 147.25 271.722656 160.757812 C 267.09375 131.511719 244.015625 112.230469 242.03125 96.683594 C 239.914062 80.074219 253.996094 66.011719 269.59375 65.609375 Z M 269.59375 65.609375 "/>
<path style=" stroke:none;fill-rule:nonzero;fill:rgb(100%,100%,100%);fill-opacity:1;" d="M 281.710938 93.125 C 281.710938 98.59375 277.585938 103.027344 272.496094 103.027344 C 267.410156 103.027344 263.285156 98.59375 263.285156 93.125 C 263.285156 87.660156 267.410156 83.226562 272.496094 83.226562 C 277.585938 83.226562 281.710938 87.660156 281.710938 93.125 Z M 281.710938 93.125 "/>
<path style=" stroke:none;fill-rule:nonzero;fill:rgb(81.960784%,82.745098%,83.137255%);fill-opacity:1;" d="M 282.003906 168.984375 C 282.003906 172.566406 279.304688 175.46875 275.972656 175.46875 C 272.636719 175.46875 269.9375 172.566406 269.9375 168.984375 C 269.9375 165.402344 272.636719 162.5 275.972656 162.5 C 279.304688 162.5 282.003906 165.402344 282.003906 168.984375 Z M 282.003906 168.984375 "/>
<use xlink:href="#surface17" mask="url(#mask4)"/>
<use xlink:href="#surface20" mask="url(#mask5)"/>
<path style=" stroke:none;fill-rule:nonzero;fill:rgb(100%,71.372549%,71.372549%);fill-opacity:1;" d="M 253.183594 147.9375 C 246.042969 147.367188 239.78125 153.011719 239.058594 160.664062 C 238.996094 161.414062 238.996094 162.167969 239.050781 162.917969 L 197.003906 183.253906 L 217.039062 196.621094 L 253.898438 175.261719 C 259.808594 174.253906 264.347656 169.09375 264.945312 162.691406 C 265.578125 155.238281 260.464844 148.644531 253.527344 147.964844 C 253.414062 147.953125 253.296875 147.945312 253.183594 147.9375 Z M 253.183594 147.9375 "/>
<path style=" stroke:none;fill-rule:nonzero;fill:rgb(100%,53.333333%,0%);fill-opacity:1;" d="M 211.875 173.371094 L 218.683594 196.046875 L 177.40625 216.523438 C 171.433594 219.519531 164.4375 218.972656 158.929688 215.082031 C 152.164062 210.261719 149.183594 201.214844 151.617188 192.890625 L 173.734375 119.375 C 176.875 108.683594 187.246094 102.492188 197.351562 105.28125 C 207.328125 107.996094 213.367188 118.890625 210.839844 129.609375 C 210.789062 129.8125 210.742188 130.011719 210.6875 130.210938 C 210.5 130.921875 210.277344 131.621094 210.019531 132.304688 L 189.617188 183.882812 Z M 211.875 173.371094 "/>
</g>
</svg>
