<svg xmlns="http://www.w3.org/2000/svg" version="1.0" width="508.521728515625" height="88.73912811279297" preserveAspectRatio="xMidYMid meet" style=""><rect id="backgroundrect" width="100%" height="100%" x="0" y="0" fill="none" stroke="none"/>


<g class="currentLayer" style=""><title>Layer 1</title><g transform="translate(0,87) scale(0.10000000149011612,-0.10000000149011612) " fill="#4141e8" stroke="none" id="svg_1" class="" fill-opacity="1">
<path d="M158.37617144442876,654.511566999195 c-21.586115881802602,-23.263982512914414 -38.85500858724468,-78.83905184932107 -82.02724035084988,-257.19625111499823 c-30.22056223452364,-125.36701687514989 -55.04459549859663,-232.63982512914413 -55.04459549859663,-236.5171555479632 c0,-5.1697738917587595 28.06195064634338,-7.754660837638138 62.59973605722754,-5.1697738917587595 l61.52043026313741,3.877330418819069 l32.3791738227039,152.50832980688338 c17.26889270544208,82.71638226814014 35.617091204974294,151.21588633394367 39.93431438133481,151.21588633394367 c4.31722317636052,0 28.06195064634338,-47.820408498768515 52.88598391041637,-105.98036478105455 c24.82403326407299,-58.15995628228603 56.12390129268676,-127.95190382102928 70.15487661585846,-155.09321675276274 c25.90333905816312,-47.820408498768515 29.141256440433512,-50.4052954446479 77.71001717448937,-46.52796502582883 l50.727372322236114,3.877330418819069 l71.23418240994859,158.9705471715818 l71.23418240994859,158.9705471715818 l36.69639699906442,-162.84787759040088 l35.617091204974294,-161.5554341174612 l62.59973605722754,0 c34.53778541088416,0 62.59973605722754,5.1697738917587595 62.59973605722754,11.631991256457207 c0,10.339547783517517 -35.617091204974294,158.9705471715818 -91.74099249766105,383.8557114630878 c-22.66542167589273,89.17859963283858 -31.29986802861377,107.27280825399424 -57.20320708677689,120.19724298339113 c-62.59973605722754,31.01864335055255 -82.02724035084988,5.1697738917587595 -218.01977040620628,-292.09222488436984 l-25.90333905816312,-55.57506933640665 l-73.39279399812884,158.9705471715818 c-83.10654614494001,175.77231231979778 -88.50307511539066,184.8194166303756 -128.43738949672547,196.4514078868328 c-20.50681008771247,6.462217364698448 -35.617091204974294,0 -56.12390129268676,-21.971539039974722 z" id="svg_2" fill="#4141e8" fill-opacity="1"/>
<path d="M2320.2256770069594,648.0493496344966 c-17.26889270544208,-20.679095567035034 -92.82029829175119,-138.29145160454678 -166.21309228988002,-262.366025006757 l-133.83391846717612,-226.17760776444567 l70.15487661585846,-3.877330418819069 c38.85500858724468,-2.5848869458793793 76.63071138039923,2.5848869458793793 84.18585193903014,10.339547783517517 c7.55514055863091,7.754660837638138 56.12390129268676,86.59371268695921 107.930579409013,175.77231231979778 l93.89960408584132,161.5554341174612 l62.59973605722754,-107.27280825399424 l62.59973605722754,-107.27280825399424 l-94.97890987993144,-3.877330418819069 l-93.89960408584132,-3.877330418819069 l-35.617091204974294,-58.15995628228603 c-18.34819849953221,-32.31108682349224 -32.3791738227039,-60.74484322816541 -30.22056223452364,-64.62217364698448 c3.23791738227039,-2.5848869458793793 113.32710837946365,-3.877330418819069 245.0024152584595,-2.5848869458793793 l240.685192082099,3.877330418819069 l-126.27877790854521,219.71539039974724 c-179.16476181896158,312.7713204514049 -214.78185302393587,346.37485074783683 -286.01603543388444,268.8282423714554 z" id="svg_3" fill="#4141e8" fill-opacity="1"/>
<path d="M4016.894385316644,663.5586713097729 c-37.77570279315455,-9.047104310577827 -84.18585193903014,-29.72619987761286 -104.69266202674261,-45.23552155288914 c-75.5514055863091,-55.57506933640665 -104.69266202674261,-217.13050345386785 -59.36181867495715,-329.57308559962087 c16.18958691135195,-40.06574766113038 36.69639699906442,-64.62217364698448 78.7893229685795,-91.76348657871796 c55.04459549859663,-36.18841724231131 60.44112446904728,-37.480860715251 212.6232414357556,-37.480860715251 c146.78558799625768,0 160.81656331942938,2.5848869458793793 210.46462984757537,33.60353029643193 c71.23418240994859,42.650634607009756 104.69266202674261,112.442582145753 104.69266202674261,217.13050345386785 c0,86.59371268695921 -23.74472746998286,156.38566022570245 -64.7583476454078,195.15896441389313 c-64.7583476454078,62.0372867011051 -256.87477899345095,91.76348657871796 -377.7570279315455,58.15995628228603 zm228.81282834710757,-122.78212992927051 c63.67904185131767,-16.801765148215964 87.42376932130053,-52.990182390527266 86.34446352721041,-130.53679076690864 c0,-45.23552155288914 -6.47583476454078,-72.37683448462262 -21.586115881802602,-89.17859963283858 c-44.25153755769533,-52.990182390527266 -234.20935731755822,-64.62217364698448 -307.6021513156871,-19.386652094095343 c-34.53778541088416,21.971539039974722 -42.09292596951507,42.650634607009756 -42.09292596951507,116.31991256457206 c0,99.5181474163561 44.25153755769533,131.82923423984835 178.08545602487146,134.4141211857277 c35.617091204974294,0 84.18585193903014,-5.1697738917587595 106.85127361492287,-11.631991256457207 z" id="svg_4" fill="#4141e8" fill-opacity="1"/>
<path d="M4559.785199743978,650.634236580376 c-26.98264485225325,-31.01864335055255 -26.98264485225325,-33.60353029643193 -26.98264485225325,-264.9509119526364 l0,-232.63982512914413 l59.36181867495715,0 l59.36181867495715,0 l0,148.6309993880643 c0,81.42393879520044 3.23791738227039,148.6309993880643 6.47583476454078,148.6309993880643 c7.55514055863091,0 47.48945493996572,-41.35819113407007 186.7199023775925,-191.28163399507406 c90.66168670357092,-98.2257039434164 102.53405043856235,-107.27280825399424 139.23044743762676,-103.39547783517517 c60.44112446904728,6.462217364698448 66.91695923358806,32.31108682349224 66.91695923358806,292.09222488436984 l0,222.3002773456266 l-59.36181867495715,0 l-59.36181867495715,0 l0,-148.6309993880643 c0,-81.42393879520044 -3.23791738227039,-148.6309993880643 -6.47583476454078,-148.6309993880643 c-3.23791738227039,0 -65.83765343949793,63.32973017404479 -137.0718358494465,139.5838950774865 c-174.84753864260105,186.1118601033153 -184.56129078941223,192.57407746801374 -228.81282834710757,138.29145160454678 z" id="svg_5" fill="#4141e8" fill-opacity="1"/>
<path d="M873.955912926185,411.5321940865333 l0,-258.4886945879379 l203.98879508303457,0 l205.0681008771247,0 l37.77570279315455,56.867512809346344 c21.586115881802602,29.72619987761286 38.85500858724468,59.45239975522572 38.85500858724468,64.62217364698448 c0,3.877330418819069 -79.86862876266962,7.754660837638138 -178.08545602487146,7.754660837638138 l-178.08545602487146,0 l0,38.773304188190686 l0,38.773304188190686 l132.754612673086,0 l133.83391846717612,0 l33.45847961679403,50.4052954446479 c19.42750429362234,28.433756404673172 34.53778541088416,54.28262586346696 34.53778541088416,58.15995628228603 c0,3.877330418819069 -75.5514055863091,7.754660837638138 -167.29239808397014,7.754660837638138 l-167.29239808397014,0 l0,32.31108682349224 l0,32.31108682349224 l139.23044743762676,0 l139.23044743762676,0 l31.29986802861377,49.1128519717082 c18.34819849953221,25.848869458793793 35.617091204974294,55.57506933640665 39.93431438133481,64.62217364698448 c6.47583476454078,11.631991256457207 -44.25153755769533,15.509321675276276 -235.28866311164833,15.509321675276276 l-243.9231094643694,0 l0,-258.4886945879379 z" id="svg_6" fill="#4141e8" fill-opacity="1"/>
<path d="M1566.8702327320484,650.634236580376 c-100.3754388503821,-37.480860715251 -153.26142276079847,-120.19724298339113 -153.26142276079847,-239.1020424938426 c0,-78.83905184932107 17.26889270544208,-124.0745734022102 69.07557082176832,-178.35719926567717 c60.44112446904728,-63.32973017404479 126.27877790854521,-80.13149532226076 316.2365976684081,-80.13149532226076 l165.1337864957899,0 l0,161.5554341174612 l0,161.5554341174612 l-134.91322426126627,0 l-134.91322426126627,0 l-37.77570279315455,-47.820408498768515 c-20.50681008771247,-27.14131293173348 -37.77570279315455,-52.990182390527266 -37.77570279315455,-58.15995628228603 c0,-6.462217364698448 48.56876073405585,-10.339547783517517 107.930579409013,-10.339547783517517 l107.930579409013,0 l0,-38.773304188190686 l0,-38.773304188190686 l-102.53405043856235,0 c-121.9615547321847,0 -160.81656331942938,18.094208621155655 -184.56129078941223,85.30126921401951 c-12.95166952908156,37.480860715251 -12.95166952908156,50.4052954446479 0,87.88615615989889 c24.82403326407299,71.08439101168292 60.44112446904728,85.30126921401951 213.70254722984575,85.30126921401951 l133.83391846717612,0 l39.93431438133481,64.62217364698448 l39.93431438133481,64.62217364698448 l-180.24406761305173,-1.2924434729396896 c-118.7236373499143,0 -197.51296031849378,-6.462217364698448 -227.73352255301742,-18.094208621155655 z" id="svg_7" fill="#4141e8" fill-opacity="1"/>
<path d="M2651.572555792629,605.3987150274868 l-41.01362017542494,-64.62217364698448 l102.53405043856235,0 l103.61335623265248,0 l0,-193.86652094095345 l0,-193.86652094095345 l64.7583476454078,0 l64.7583476454078,0 l0,193.86652094095345 l0,193.86652094095345 l78.7893229685795,0 l78.7893229685795,0 l39.93431438133481,64.62217364698448 l39.93431438133481,64.62217364698448 l-245.0024152584595,0 l-246.08172105254965,-1.2924434729396896 l-41.01362017542494,-63.32973017404479 z" id="svg_8" fill="#4141e8" fill-opacity="1"/>
<path d="M3235.4769903953893,609.276045446306 l-39.93431438133481,-62.0372867011051 l212.6232414357556,-7.754660837638138 c116.56502576173405,-3.877330418819069 213.70254722984575,-7.754660837638138 214.78185302393587,-9.047104310577827 c11.87236373499143,-12.924434729396896 23.74472746998286,-55.57506933640665 18.34819849953221,-71.08439101168292 c-11.87236373499143,-38.773304188190686 -58.282512880867024,-47.820408498768515 -255.79547319936083,-47.820408498768515 l-196.43365452440366,0 l3.23791738227039,-129.24434729396896 l3.23791738227039,-129.24434729396896 l64.7583476454078,0 l63.67904185131767,0 l-2.15861158818026,67.20706059286385 l-3.23791738227039,68.49950406580355 l103.61335623265248,3.877330418819069 l104.69266202674261,3.877330418819069 l50.727372322236114,-72.37683448462262 l50.727372322236114,-71.08439101168292 l87.42376932130053,0 l87.42376932130053,0 l-66.91695923358806,81.42393879520044 c-70.15487661585846,84.00882574107982 -77.71001717448937,99.5181474163561 -50.727372322236114,99.5181474163561 c8.63444635272104,0 31.29986802861377,16.801765148215964 49.64806652814598,36.18841724231131 c24.82403326407299,27.14131293173348 34.53778541088416,50.4052954446479 38.85500858724468,94.34837352459733 c7.55514055863091,78.83905184932107 -16.18958691135195,131.82923423984835 -75.5514055863091,169.31009495509934 c-41.01362017542494,27.14131293173348 -62.59973605722754,29.72619987761286 -234.20935731755822,33.60353029643193 l-188.87851396577275,3.877330418819069 l-39.93431438133481,-62.0372867011051 z" id="svg_9" fill="#4141e8" fill-opacity="1"/>
</g></g></svg>