<?xml version="1.0" standalone="no"?>
<!DOCTYPE svg PUBLIC "-//W3C//DTD SVG 20010904//EN"
 "http://www.w3.org/TR/2001/REC-SVG-20010904/DTD/svg10.dtd">
<svg version="1.0" xmlns="http://www.w3.org/2000/svg"
 width="512.000000pt" height="87.000000pt" viewBox="0 0 512.000000 87.000000"
 preserveAspectRatio="xMidYMid meet">

<g transform="translate(0.000000,87.000000) scale(0.100000,-0.100000)"
fill="#000000" stroke="none">
<path d="M357 628 c-20 -18 -36 -61 -76 -199 -28 -97 -51 -180 -51 -183 0 -4
26 -6 58 -4 l57 3 30 118 c16 64 33 117 37 117 4 0 26 -37 49 -82 23 -45 52
-99 65 -120 24 -37 27 -39 72 -36 l47 3 66 123 66 123 34 -126 33 -125 58 0
c32 0 58 4 58 9 0 8 -33 123 -85 297 -21 69 -29 83 -53 93 -58 24 -76 4 -202
-226 l-24 -43 -68 123 c-77 136 -82 143 -119 152 -19 5 -33 0 -52 -17z"/>
<path d="M2360 623 c-16 -16 -86 -107 -154 -203 l-124 -175 65 -3 c36 -2 71 2
78 8 7 6 52 67 100 136 l87 125 58 -83 58 -83 -88 -3 -87 -3 -33 -45 c-17 -25
-30 -47 -28 -50 3 -2 105 -3 227 -2 l223 3 -117 170 c-166 242 -199 268 -265
208z"/>
<path d="M3932 635 c-35 -7 -78 -23 -97 -35 -70 -43 -97 -168 -55 -255 15 -31
34 -50 73 -71 51 -28 56 -29 197 -29 136 0 149 2 195 26 66 33 97 87 97 168 0
67 -22 121 -60 151 -60 48 -238 71 -350 45z m212 -95 c59 -13 81 -41 80 -101
0 -35 -6 -56 -20 -69 -41 -41 -217 -50 -285 -15 -32 17 -39 33 -39 90 0 77 41
102 165 104 33 0 78 -4 99 -9z"/>
<path d="M4435 625 c-25 -24 -25 -26 -25 -205 l0 -180 55 0 55 0 0 115 c0 63
3 115 6 115 7 0 44 -32 173 -148 84 -76 95 -83 129 -80 56 5 62 25 62 226 l0
172 -55 0 -55 0 0 -115 c0 -63 -3 -115 -6 -115 -3 0 -61 49 -127 108 -162 144
-171 149 -212 107z"/>
<path d="M1020 440 l0 -200 189 0 190 0 35 44 c20 23 36 46 36 50 0 3 -74 6
-165 6 l-165 0 0 30 0 30 123 0 124 0 31 39 c18 22 32 42 32 45 0 3 -70 6
-155 6 l-155 0 0 25 0 25 129 0 129 0 29 38 c17 20 33 43 37 50 6 9 -41 12
-218 12 l-226 0 0 -200z"/>
<path d="M1662 625 c-93 -29 -142 -93 -142 -185 0 -61 16 -96 64 -138 56 -49
117 -62 293 -62 l153 0 0 125 0 125 -125 0 -125 0 -35 -37 c-19 -21 -35 -41
-35 -45 0 -5 45 -8 100 -8 l100 0 0 -30 0 -30 -95 0 c-113 0 -149 14 -171 66
-12 29 -12 39 0 68 23 55 56 66 198 66 l124 0 37 50 37 50 -167 -1 c-110 0
-183 -5 -211 -14z"/>
<path d="M2667 590 l-38 -50 95 0 96 0 0 -150 0 -150 60 0 60 0 0 150 0 150
73 0 73 0 37 50 37 50 -227 0 -228 -1 -38 -49z"/>
<path d="M3208 593 l-37 -48 197 -6 c108 -3 198 -6 199 -7 11 -10 22 -43 17
-55 -11 -30 -54 -37 -237 -37 l-182 0 3 -100 3 -100 60 0 59 0 -2 52 -3 53 96
3 97 3 47 -56 47 -55 81 0 81 0 -62 63 c-65 65 -72 77 -47 77 8 0 29 13 46 28
23 21 32 39 36 73 7 61 -15 102 -70 131 -38 21 -58 23 -217 26 l-175 3 -37
-48z"/>
</g>
</svg>
